<?xml version="1.0" encoding="UTF-8" standalone="no"?>
<!-- Created with Inkscape (http://www.inkscape.org/) -->

<svg
   width="100mm"
   height="100mm"
   version="1.1"
   viewBox="0 0 100 100"
   xml:space="preserve"
   id="svg188"
   sodipodi:docname="stuff_feature_Container_Malus.svg"
   inkscape:version="1.2 (dc2aedaf03, 2022-05-15)"
   xmlns:inkscape="http://www.inkscape.org/namespaces/inkscape"
   xmlns:sodipodi="http://sodipodi.sourceforge.net/DTD/sodipodi-0.dtd"
   xmlns="http://www.w3.org/2000/svg"
   xmlns:svg="http://www.w3.org/2000/svg"><defs
   id="defs192" /><sodipodi:namedview
   id="namedview190"
   pagecolor="#ffffff"
   bordercolor="#000000"
   borderopacity="0.25"
   inkscape:showpageshadow="2"
   inkscape:pageopacity="0.0"
   inkscape:pagecheckerboard="0"
   inkscape:deskcolor="#d1d1d1"
   inkscape:document-units="mm"
   showgrid="true"
   inkscape:zoom="1.1150485"
   inkscape:cx="-130.03919"
   inkscape:cy="295.95125"
   inkscape:window-width="3440"
   inkscape:window-height="1369"
   inkscape:window-x="1352"
   inkscape:window-y="-8"
   inkscape:window-maximized="1"
   inkscape:current-layer="svg188"><inkscape:grid
     type="xygrid"
     id="grid194"
     units="mm"
     spacingx="0.99999999"
     spacingy="0.99999999" /></sodipodi:namedview>

<path
   style="fill:#4a0000;fill-opacity:1;stroke-width:0.499999;stroke-linecap:round;stroke-linejoin:round;paint-order:markers fill stroke"
   d="m 50,94.999997 -45,-45 H 24.999999 V 5 h 49.999998 v 44.999997 h 20 z"
   id="path1071" /><path
   style="fill:#ff9898;fill-opacity:1;stroke-width:0.5;stroke-linecap:round;stroke-linejoin:round;paint-order:markers fill stroke"
   d="m 60,27.5 -7.5,5 c 0,0 0,-7.5 -2.5,-7.5 l -2.5,7.5 c 0,0 -5,-5 -7.5,-2.5 l 5,5 c 0,0 -4.5,-0.5 -7.5,2.5 2.5,2 4,3.5 6.5,4 3.5,0 7,0.5 10.5,0.5 0,0 0,-0.5 0,-0.5 4.5,-1 11.5,-3 13,-6.5 H 55 c 0,0 7.5,-5 5,-7.5 z m -17.5,25 c 0,-2 0,-4 5,-8 C 46,44.5 44.5,44 43,44 33,52.5 25,59 25,65 c 0,7.5 12.5,10 25,10 12.5,0 25,-2.5 25,-10 0,-6 -8.5,-12.5 -18,-21 -1.5,0 -2.5,0.5 -4,0.5 2.5,2.5 4.5,6.5 4.5,8 0,2.5 -2.5,7.5 -5,10 -2.5,2.5 -5,2.5 -2.5,0 2.5,-2.5 5,-7.5 5,-10 L 50,45 c 0,0 -5,5 -5,7.5 0,2.5 -2.5,2.5 -2.5,0 z"
   id="path7235" /></svg>
