<?xml version="1.0" encoding="UTF-8" standalone="no"?>
<!-- Created with Inkscape (http://www.inkscape.org/) -->

<svg
   width="100mm"
   height="100mm"
   version="1.1"
   viewBox="0 0 100 100"
   xml:space="preserve"
   id="svg188"
   sodipodi:docname="stuff_feature_Armor_Group.svg"
   inkscape:version="1.2 (dc2aedaf03, 2022-05-15)"
   xmlns:inkscape="http://www.inkscape.org/namespaces/inkscape"
   xmlns:sodipodi="http://sodipodi.sourceforge.net/DTD/sodipodi-0.dtd"
   xmlns="http://www.w3.org/2000/svg"
   xmlns:svg="http://www.w3.org/2000/svg"><path
   id="rect23223"
   style="fill:#00004d;stroke-width:0.499999;stroke-linecap:round;stroke-linejoin:round;paint-order:markers fill stroke"
   d="M 0 0 L 0 100.0001 L 100.0001 100.0001 L 100.0001 0 L 0 0 z M 5.0002116 5.0002116 L 94.999886 5.0002116 L 94.999886 94.999886 L 5.0002116 94.999886 L 5.0002116 5.0002116 z " /><defs
   id="defs192" /><sodipodi:namedview
   id="namedview190"
   pagecolor="#ffffff"
   bordercolor="#000000"
   borderopacity="0.25"
   inkscape:showpageshadow="2"
   inkscape:pageopacity="0.0"
   inkscape:pagecheckerboard="0"
   inkscape:deskcolor="#d1d1d1"
   inkscape:document-units="mm"
   showgrid="true"
   inkscape:zoom="1.1150485"
   inkscape:cx="-130.03919"
   inkscape:cy="295.95125"
   inkscape:window-width="3440"
   inkscape:window-height="1369"
   inkscape:window-x="1352"
   inkscape:window-y="-8"
   inkscape:window-maximized="1"
   inkscape:current-layer="svg188"><inkscape:grid
     type="xygrid"
     id="grid194"
     units="mm"
     spacingx="0.99999999"
     spacingy="0.99999999" /></sodipodi:namedview>

<rect
   style="fill:#00004d;stroke-width:0.499999;stroke-linecap:round;stroke-linejoin:round;paint-order:markers fill stroke"
   id="rect23228"
   width="35"
   height="35"
   x="10"
   y="10" /><rect
   style="fill:#00004d;stroke-width:0.499999;stroke-linecap:round;stroke-linejoin:round;paint-order:markers fill stroke"
   id="rect23230"
   width="35"
   height="35"
   x="10"
   y="54.999996" /><rect
   style="fill:#00004d;stroke-width:0.499999;stroke-linecap:round;stroke-linejoin:round;paint-order:markers fill stroke"
   id="rect23232"
   width="35"
   height="35"
   x="54.999996"
   y="54.999996" /><rect
   style="fill:#00004d;stroke-width:0.499999;stroke-linecap:round;stroke-linejoin:round;paint-order:markers fill stroke"
   id="rect23234"
   width="35"
   height="35"
   x="54.999996"
   y="10" /><path
   style="fill:#9898ff;fill-opacity:1;stroke-width:0.5;stroke-linecap:round;stroke-linejoin:round;paint-order:markers fill stroke"
   d="m 26,14.45 -1.5,-0.9 -0.6,3.9 -6.9,1.5 10.5,1.5 10.5,-1.5 -6.9,-1.5 -0.6,-3.9 -1.5,0.9 -0.9,3 h -0.6 -0.6 z m -6.6,5.7 -3.9,-0.9 -3,4.8 2.1,3 2.7,-1.2 z m 23.1,3.9 -3,-4.8 -3.9,0.9 2.1,5.7 2.7,1.2 z m -15.6,-3 -6.9,-0.9 -1.5,4.8 1.5,5.4 6.9,3 z m 9.6,3.9 -1.5,-4.8 -6.9,0.9 v 12.3 l 6.9,-3 z m -9.6,9.3 -6,-2.7 v 4.8 l 6,1.2 z m 7.2,2.1 v -4.8 l -6,2.7 v 3.3 z m -7.2,1.8 -6,-1.2 v 3.9 l 6,0.6 z m 7.2,2.7 v -3.9 l -6,1.2 v 3.3 z"
   id="path7235" /><path
   style="fill:#9898ff;fill-opacity:1;stroke-width:0.5;stroke-linecap:round;stroke-linejoin:round;paint-order:markers fill stroke"
   d="m 70.999999,14.45 -1.5,-0.9 -0.6,3.9 -6.9,1.5 10.5,1.5 10.5,-1.5 -6.9,-1.5 -0.6,-3.9 -1.5,0.9 -0.9,3 h -0.6 -0.6 z m -6.6,5.7 -3.9,-0.9 -3,4.8 2.1,3 2.7,-1.2 z m 23.1,3.9 -3,-4.8 -3.9,0.9 2.1,5.7 2.7,1.2 z m -15.6,-3 -6.9,-0.9 -1.5,4.8 1.5,5.4 6.9,3 z m 9.6,3.9 -1.5,-4.8 -6.9,0.9 v 12.3 l 6.9,-3 z m -9.6,9.3 -6,-2.7 v 4.8 l 6,1.2 z m 7.2,2.1 v -4.8 l -6,2.7 v 3.3 z m -7.2,1.8 -6,-1.2 v 3.9 l 6,0.6 z m 7.2,2.7 v -3.9 l -6,1.2 v 3.3 z"
   id="path7235-5" /><path
   style="fill:#9898ff;fill-opacity:1;stroke-width:0.5;stroke-linecap:round;stroke-linejoin:round;paint-order:markers fill stroke"
   d="m 70.999999,59.45 -1.5,-0.9 -0.6,3.9 -6.9,1.5 10.5,1.5 10.5,-1.5 -6.9,-1.5 -0.6,-3.9 -1.5,0.9 -0.9,3 h -0.6 -0.6 z m -6.6,5.7 -3.9,-0.9 -3,4.8 2.1,3 2.7,-1.2 z m 23.1,3.9 -3,-4.8 -3.9,0.9 2.1,5.7 2.7,1.2 z m -15.6,-3 -6.9,-0.9 -1.5,4.8 1.5,5.4 6.9,3 z m 9.6,3.9 -1.5,-4.8 -6.9,0.9 v 12.3 l 6.9,-3 z m -9.6,9.3 -6,-2.7 v 4.8 l 6,1.2 z m 7.2,2.1 v -4.8 l -6,2.7 v 3.3 z m -7.2,1.8 -6,-1.2 v 3.9 l 6,0.6 z m 7.2,2.7 v -3.9 l -6,1.2 v 3.3 z"
   id="path7235-8" /><path
   style="fill:#9898ff;fill-opacity:1;stroke-width:0.5;stroke-linecap:round;stroke-linejoin:round;paint-order:markers fill stroke"
   d="m 26,59.45 -1.5,-0.9 -0.6,3.9 -6.9,1.5 10.5,1.5 10.5,-1.5 -6.9,-1.5 -0.6,-3.9 -1.5,0.9 -0.9,3 h -0.6 -0.6 z m -6.6,5.7 -3.9,-0.9 -3,4.8 2.1,3 2.7,-1.2 z m 23.1,3.9 -3,-4.8 -3.9,0.9 2.1,5.7 2.7,1.2 z m -15.6,-3 -6.9,-0.9 -1.5,4.8 1.5,5.4 6.9,3 z m 9.6,3.9 -1.5,-4.8 -6.9,0.9 v 12.3 l 6.9,-3 z m -9.6,9.3 -6,-2.7 v 4.8 l 6,1.2 z m 7.2,2.1 v -4.8 l -6,2.7 v 3.3 z m -7.2,1.8 -6,-1.2 v 3.9 l 6,0.6 z m 7.2,2.7 v -3.9 l -6,1.2 v 3.3 z"
   id="path7235-2" /></svg>
