<?xml version="1.0" encoding="UTF-8" standalone="no"?>
<!-- Created with Inkscape (http://www.inkscape.org/) -->

<svg
   width="100mm"
   height="100mm"
   version="1.1"
   viewBox="0 0 100 100"
   xml:space="preserve"
   id="svg188"
   sodipodi:docname="stuff_feature_Weapon_Group.svg"
   inkscape:version="1.2 (dc2aedaf03, 2022-05-15)"
   xmlns:inkscape="http://www.inkscape.org/namespaces/inkscape"
   xmlns:sodipodi="http://sodipodi.sourceforge.net/DTD/sodipodi-0.dtd"
   xmlns="http://www.w3.org/2000/svg"
   xmlns:svg="http://www.w3.org/2000/svg"><defs
   id="defs192" /><sodipodi:namedview
   id="namedview190"
   pagecolor="#ffffff"
   bordercolor="#000000"
   borderopacity="0.25"
   inkscape:showpageshadow="2"
   inkscape:pageopacity="0.0"
   inkscape:pagecheckerboard="0"
   inkscape:deskcolor="#d1d1d1"
   inkscape:document-units="mm"
   showgrid="true"
   inkscape:zoom="1.1150485"
   inkscape:cx="-51.118853"
   inkscape:cy="295.95125"
   inkscape:window-width="3440"
   inkscape:window-height="1369"
   inkscape:window-x="1352"
   inkscape:window-y="-8"
   inkscape:window-maximized="1"
   inkscape:current-layer="svg188"><inkscape:grid
     type="xygrid"
     id="grid194"
     units="mm"
     spacingx="0.99999999"
     spacingy="0.99999999" /></sodipodi:namedview>

<path
   id="rect13538"
   style="fill:#00004a;stroke-width:0.499999;stroke-linecap:round;stroke-linejoin:round;paint-order:markers fill stroke"
   d="M 0 0 L 0 100.0001 L 100.0001 100.0001 L 100.0001 0 L 0 0 z M 5.0002116 5.0002116 L 94.999886 5.0002116 L 94.999886 94.999886 L 5.0002116 94.999886 L 5.0002116 5.0002116 z " /><rect
   style="fill:#00004a;stroke-width:0.499999;stroke-linecap:round;stroke-linejoin:round;paint-order:markers fill stroke"
   id="rect13543"
   width="35"
   height="35"
   x="10"
   y="10" /><rect
   style="fill:#00004a;stroke-width:0.499999;stroke-linecap:round;stroke-linejoin:round;paint-order:markers fill stroke"
   id="rect13545"
   width="35"
   height="35"
   x="54.999996"
   y="10" /><path
   style="fill:#9898ff;fill-opacity:1;stroke-width:0.5;stroke-linecap:round;stroke-linejoin:round;paint-order:markers fill stroke"
   d="m 64.999996,15.5 -7.5,-3 3,7.5 13.5,13.5 4.5,-4.5 z m 18,6 4.5,-9 -9,4.5 h 3 c 0,0 -4.2,4.2 -4.2,4.2 -4.5,-4.2 -9.9,-7.5 -15.6,-8.4 1.2,0.6 2.7,1.2 3.9,1.8 0,0 2.4,2.1 2.4,2.1 3,1.5 5.7,3.3 8.1,5.7 l -1.2,1.2 1.5,1.5 c 0,0 1.2,-1.2 1.2,-1.2 0.9,0.9 1.8,2.1 2.7,3.3 0,0 1.2,-1.5 1.2,-1.5 -0.9,-1.2 -1.8,-2.1 -2.7,-3 l 4.2,-4.2 z m -23.7,-1.2 c -0.6,-1.5 -1.2,-2.7 -1.8,-4.2 l 1.5,24.9 c 0,0 25.8,1.5 25.8,1.5 -0.3,0 -0.6,-0.6 -0.9,-0.6 -0.3,-0.3 -0.9,-0.9 -1.2,-1.2 l -20.7,-1.2 8.1,-8.1 -1.5,-1.5 -8.1,8.1 c 0,0 -1.2,-17.7 -1.2,-17.7 z m 22.2,10.2 v -3 l -9,9 h 3 z m 5.7,9 c -0.6,-4.2 -2.1,-8.4 -4.5,-12 0,0 0,3.3 0,3.3 1.2,2.1 1.8,4.2 2.4,6.3 0.6,0.6 1.2,1.2 1.8,1.8 0,0.3 0.3,0.3 0.3,0.6 z m -1.2,0 -6,-6 -1.5,1.5 6,6 3,1.5 z"
   id="path7235-6" /><rect
   style="fill:#00004a;stroke-width:0.499999;stroke-linecap:round;stroke-linejoin:round;paint-order:markers fill stroke"
   id="rect13547"
   width="35"
   height="35"
   x="54.999996"
   y="54.999996" /><rect
   style="fill:#00004a;stroke-width:0.499999;stroke-linecap:round;stroke-linejoin:round;paint-order:markers fill stroke"
   id="rect13549"
   width="35"
   height="35"
   x="10"
   y="54.999996" /><path
   style="fill:#9898ff;fill-opacity:1;stroke-width:0.5;stroke-linecap:round;stroke-linejoin:round;paint-order:markers fill stroke"
   d="m 20,15.5 -7.5,-3 3,7.5 L 29,33.5 33.5,29 Z m 18,6 4.5,-9 -9,4.5 h 3 c 0,0 -4.2,4.2 -4.2,4.2 -4.5,-4.2 -9.9,-7.5 -15.6,-8.4 1.2,0.6 2.7,1.2 3.9,1.8 0,0 2.4,2.1 2.4,2.1 3,1.5 5.7,3.3 8.1,5.7 l -1.2,1.2 1.5,1.5 c 0,0 1.2,-1.2 1.2,-1.2 0.9,0.9 1.8,2.1 2.7,3.3 0,0 1.2,-1.5 1.2,-1.5 -0.9,-1.2 -1.8,-2.1 -2.7,-3 L 38,18.5 Z M 14.3,20.3 C 13.7,18.8 13.1,17.6 12.5,16.1 L 14,41 c 0,0 25.8,1.5 25.8,1.5 -0.3,0 -0.6,-0.6 -0.9,-0.6 C 38.6,41.6 38,41 37.7,40.7 L 17,39.5 25.1,31.4 23.6,29.9 15.5,38 c 0,0 -1.2,-17.7 -1.2,-17.7 z m 22.2,10.2 v -3 l -9,9 h 3 z m 5.7,9 c -0.6,-4.2 -2.1,-8.4 -4.5,-12 0,0 0,3.3 0,3.3 1.2,2.1 1.8,4.2 2.4,6.3 0.6,0.6 1.2,1.2 1.8,1.8 0,0.3 0.3,0.3 0.3,0.6 z m -1.2,0 -6,-6 -1.5,1.5 6,6 3,1.5 z"
   id="path7235" /><path
   style="fill:#9898ff;fill-opacity:1;stroke-width:0.5;stroke-linecap:round;stroke-linejoin:round;paint-order:markers fill stroke"
   d="m 64.999996,60.499996 -7.5,-3 3,7.5 13.5,13.5 4.5,-4.5 z m 18,6 4.5,-9 -9,4.5 h 3 c 0,0 -4.2,4.2 -4.2,4.2 -4.5,-4.2 -9.9,-7.5 -15.6,-8.4 1.2,0.6 2.7,1.2 3.9,1.8 0,0 2.4,2.1 2.4,2.1 3,1.5 5.7,3.3 8.1,5.7 l -1.2,1.2 1.5,1.5 c 0,0 1.2,-1.2 1.2,-1.2 0.9,0.9 1.8,2.1 2.7,3.3 0,0 1.2,-1.5 1.2,-1.5 -0.9,-1.2 -1.8,-2.1 -2.7,-3 l 4.2,-4.2 z m -23.7,-1.2 c -0.6,-1.5 -1.2,-2.7 -1.8,-4.2 l 1.5,24.9 c 0,0 25.8,1.5 25.8,1.5 -0.3,0 -0.6,-0.6 -0.9,-0.6 -0.3,-0.3 -0.9,-0.9 -1.2,-1.2 l -20.7,-1.2 8.1,-8.1 -1.5,-1.5 -8.1,8.1 c 0,0 -1.2,-17.7 -1.2,-17.7 z m 22.2,10.2 v -3 l -9,9 h 3 z m 5.7,9 c -0.6,-4.2 -2.1,-8.4 -4.5,-12 0,0 0,3.3 0,3.3 1.2,2.1 1.8,4.2 2.4,6.3 0.6,0.6 1.2,1.2 1.8,1.8 0,0.3 0.3,0.3 0.3,0.6 z m -1.2,0 -6,-6 -1.5,1.5 6,6 3,1.5 z"
   id="path7235-7" /><path
   style="fill:#9898ff;fill-opacity:1;stroke-width:0.5;stroke-linecap:round;stroke-linejoin:round;paint-order:markers fill stroke"
   d="m 20,60.499996 -7.5,-3 3,7.5 13.5,13.5 4.5,-4.5 z m 18,6 4.5,-9 -9,4.5 h 3 c 0,0 -4.2,4.2 -4.2,4.2 -4.5,-4.2 -9.9,-7.5 -15.6,-8.4 1.2,0.6 2.7,1.2 3.9,1.8 0,0 2.4,2.1 2.4,2.1 3,1.5 5.7,3.3 8.1,5.7 l -1.2,1.2 1.5,1.5 c 0,0 1.2,-1.2 1.2,-1.2 0.9,0.9 1.8,2.1 2.7,3.3 0,0 1.2,-1.5 1.2,-1.5 -0.9,-1.2 -1.8,-2.1 -2.7,-3 l 4.2,-4.2 z m -23.7,-1.2 c -0.6,-1.5 -1.2,-2.7 -1.8,-4.2 l 1.5,24.9 c 0,0 25.8,1.5 25.8,1.5 -0.3,0 -0.6,-0.6 -0.9,-0.6 -0.3,-0.3 -0.9,-0.9 -1.2,-1.2 l -20.7,-1.2 8.1,-8.1 -1.5,-1.5 -8.1,8.1 c 0,0 -1.2,-17.7 -1.2,-17.7 z m 22.2,10.2 v -3 l -9,9 h 3 z m 5.7,9 c -0.6,-4.2 -2.1,-8.4 -4.5,-12 0,0 0,3.3 0,3.3 1.2,2.1 1.8,4.2 2.4,6.3 0.6,0.6 1.2,1.2 1.8,1.8 0,0.3 0.3,0.3 0.3,0.6 z m -1.2,0 -6,-6 -1.5,1.5 6,6 3,1.5 z"
   id="path7235-8" /></svg>
