<?xml version="1.0" encoding="UTF-8" standalone="no"?>
<!-- Created with Inkscape (http://www.inkscape.org/) -->

<svg
   width="100mm"
   height="100mm"
   version="1.1"
   viewBox="0 0 100 100"
   xml:space="preserve"
   id="svg188"
   sodipodi:docname="stuff_feature_Service_Group.svg"
   inkscape:version="1.2 (dc2aedaf03, 2022-05-15)"
   xmlns:inkscape="http://www.inkscape.org/namespaces/inkscape"
   xmlns:sodipodi="http://sodipodi.sourceforge.net/DTD/sodipodi-0.dtd"
   xmlns="http://www.w3.org/2000/svg"
   xmlns:svg="http://www.w3.org/2000/svg"><defs
   id="defs192" /><sodipodi:namedview
   id="namedview190"
   pagecolor="#ffffff"
   bordercolor="#000000"
   borderopacity="0.25"
   inkscape:showpageshadow="2"
   inkscape:pageopacity="0.0"
   inkscape:pagecheckerboard="0"
   inkscape:deskcolor="#d1d1d1"
   inkscape:document-units="mm"
   showgrid="true"
   inkscape:zoom="1.1150485"
   inkscape:cx="24.214193"
   inkscape:cy="249.31651"
   inkscape:window-width="3440"
   inkscape:window-height="1369"
   inkscape:window-x="1352"
   inkscape:window-y="-8"
   inkscape:window-maximized="1"
   inkscape:current-layer="svg188"><inkscape:grid
     type="xygrid"
     id="grid194"
     units="mm"
     spacingx="0.99999999"
     spacingy="0.99999999" /></sodipodi:namedview>

<path
   id="rect11777"
   style="fill:#00004a;fill-opacity:1;stroke-width:0.499999;stroke-linecap:round;stroke-linejoin:round;paint-order:markers fill stroke"
   d="M 0 0 L 0 100.0001 L 100.0001 100.0001 L 100.0001 0 L 0 0 z M 5.0002116 5.0002116 L 94.999886 5.0002116 L 94.999886 94.999886 L 5.0002116 94.999886 L 5.0002116 5.0002116 z M 9.9999064 9.9999064 L 9.9999064 44.999837 L 44.999837 44.999837 L 44.999837 9.9999064 L 9.9999064 9.9999064 z M 54.999744 9.9999064 L 54.999744 44.999837 L 90.000191 44.999837 L 90.000191 9.9999064 L 54.999744 9.9999064 z M 9.9999064 54.999744 L 9.9999064 90.000191 L 44.999837 90.000191 L 44.999837 54.999744 L 9.9999064 54.999744 z M 54.999744 54.999744 L 54.999744 90.000191 L 90.000191 90.000191 L 90.000191 54.999744 L 54.999744 54.999744 z " /><path
   style="fill:#9898ff;fill-opacity:1;stroke-width:0.5;stroke-linecap:round;stroke-linejoin:round;paint-order:markers fill stroke"
   d="m 39.342105,15.657895 c 1.578948,0 1.578948,-3.157895 0,-3.157895 H 14.078947 v 3.157895 h 6.31579 V 18.81579 H 18.81579 v 4.736842 c 0,0 3.157894,0 3.157894,3.157895 0,3.157894 -3.157894,3.157894 -3.157894,3.157894 0,0 1.578947,6.315789 6.315789,6.315789 4.736842,0 4.736842,6.31579 4.736842,6.31579 0,0 0,-6.31579 4.736842,-6.31579 4.736842,0 6.31579,-6.315789 6.31579,-6.315789 0,0 -3.157895,0 -3.157895,-3.157894 0,-3.157895 3.157895,-3.157895 3.157895,-3.157895 V 18.81579 H 39.342105 Z M 37.763158,18.81579 H 21.973684 V 15.657895 H 37.763158 Z M 22.289474,25.131579 C 21.657895,24.18421 20.710527,23.236842 19.447368,22.921053 v -3.473685 h 20.842106 v 3.473685 l -0.31579,0.315789 c -0.947368,0.31579 -2.210526,0.947368 -2.526316,1.894737 -0.315789,0.947368 -0.315789,2.210526 0,3.157894 0.31579,1.263159 1.263159,1.894737 2.526316,2.210527 -0.947368,2.526316 -2.210526,4.736842 -5.052631,5.052632 -2.526316,0 -4.421053,1.578947 -5.052632,3.473684 -0.631579,-1.894737 -2.526316,-3.473684 -4.421053,-3.473684 -0.947368,0 -1.894736,-0.31579 -2.842105,-0.947369 C 21.342105,33.657895 20.394737,32.078947 19.763158,30.5 c 0,-0.31579 -0.31579,0 0,0 1.263158,-0.31579 2.210526,-1.263158 2.526316,-2.210527 0.315789,-0.947368 0.315789,-2.210526 0,-3.157894 z M 39.657895,22.605263 V 20.078947 H 20.078947 v 2.526316 c 1.263158,0.31579 2.526316,1.263158 2.842106,2.526316 0.315789,1.263158 0.315789,2.526316 -0.31579,3.789474 -0.315789,0.947368 -1.263158,1.578947 -2.210526,1.894737 0.631579,1.578947 1.578947,2.842105 2.842105,3.789473 0.631579,0.31579 1.578948,0.31579 2.210526,0.31579 1.578948,0 3.157895,0.947368 4.105264,2.210526 0,0.315789 0.315789,0.631579 0.315789,0.631579 C 30.5,36.5 32.078947,35.552632 33.342105,35.236842 c 0.631579,0 1.263158,-0.315789 1.894737,-0.315789 2.210526,-0.631579 3.473685,-2.210526 4.105263,-4.105263 C 38.078947,30.5 36.5,29.236842 36.5,27.973684 c 0,-1.578947 0,-2.526316 0.631579,-3.789474 0.631579,-0.947368 1.578948,-1.263157 2.526316,-1.578947 z m -16.105263,2.526316 c -0.31579,-1.578947 -1.263158,-2.526316 -2.842105,-3.157895 v -1.263157 h 18.315789 v 1.263157 c -0.631579,0.315789 -1.263158,0.631579 -1.894737,1.263158 -0.947369,1.263158 -1.263158,2.526316 -1.263158,4.736842 0,1.578948 1.263158,2.210526 2.210526,2.842106 l 0.31579,0.315789 c -0.631579,1.263158 -1.263158,2.210526 -2.526316,2.842105 -0.631579,0.31579 -1.263158,0.31579 -1.894737,0.31579 -1.578947,0.315789 -3.157894,0.947368 -4.105263,2.210526 -0.947368,-1.263158 -2.526316,-2.210526 -4.105263,-2.210526 -0.631579,0 -1.263158,0 -1.894737,-0.31579 -1.263158,-0.631579 -1.894737,-1.578947 -2.526316,-2.842105 0.631579,-0.315789 1.263158,-0.631579 1.578948,-1.263158 0.947368,-1.263158 0.947368,-3.157894 0.631579,-4.736842 z"
   id="path7235" /><path
   style="fill:#9898ff;fill-opacity:1;stroke-width:0.5;stroke-linecap:round;stroke-linejoin:round;paint-order:markers fill stroke"
   d="m 84.342101,15.657895 c 1.578948,0 1.578948,-3.157895 0,-3.157895 H 59.078943 v 3.157895 h 6.31579 v 3.157895 h -1.578947 v 4.736842 c 0,0 3.157894,0 3.157894,3.157895 0,3.157894 -3.157894,3.157894 -3.157894,3.157894 0,0 1.578947,6.315789 6.315789,6.315789 4.736842,0 4.736842,6.31579 4.736842,6.31579 0,0 0,-6.31579 4.736842,-6.31579 4.736842,0 6.31579,-6.315789 6.31579,-6.315789 0,0 -3.157895,0 -3.157895,-3.157894 0,-3.157895 3.157895,-3.157895 3.157895,-3.157895 V 18.81579 H 84.342101 Z M 82.763154,18.81579 H 66.97368 V 15.657895 H 82.763154 Z M 67.28947,25.131579 C 66.657891,24.18421 65.710523,23.236842 64.447364,22.921053 V 19.447368 H 85.28947 v 3.473685 l -0.31579,0.315789 c -0.947368,0.31579 -2.210526,0.947368 -2.526316,1.894737 -0.315789,0.947368 -0.315789,2.210526 0,3.157894 0.31579,1.263159 1.263159,1.894737 2.526316,2.210527 -0.947368,2.526316 -2.210526,4.736842 -5.052631,5.052632 -2.526316,0 -4.421053,1.578947 -5.052632,3.473684 -0.631579,-1.894737 -2.526316,-3.473684 -4.421053,-3.473684 -0.947368,0 -1.894736,-0.31579 -2.842105,-0.947369 C 66.342101,33.657895 65.394733,32.078947 64.763154,30.5 c 0,-0.31579 -0.31579,0 0,0 1.263158,-0.31579 2.210526,-1.263158 2.526316,-2.210527 0.315789,-0.947368 0.315789,-2.210526 0,-3.157894 z M 84.657891,22.605263 V 20.078947 H 65.078943 v 2.526316 c 1.263158,0.31579 2.526316,1.263158 2.842106,2.526316 0.315789,1.263158 0.315789,2.526316 -0.31579,3.789474 -0.315789,0.947368 -1.263158,1.578947 -2.210526,1.894737 0.631579,1.578947 1.578947,2.842105 2.842105,3.789473 0.631579,0.31579 1.578948,0.31579 2.210526,0.31579 1.578948,0 3.157895,0.947368 4.105264,2.210526 0,0.315789 0.315789,0.631579 0.315789,0.631579 0.631579,-1.263158 2.210526,-2.210526 3.473684,-2.526316 0.631579,0 1.263158,-0.315789 1.894737,-0.315789 2.210526,-0.631579 3.473685,-2.210526 4.105263,-4.105263 -1.263158,-0.31579 -2.842105,-1.578948 -2.842105,-2.842106 0,-1.578947 0,-2.526316 0.631579,-3.789474 0.631579,-0.947368 1.578948,-1.263157 2.526316,-1.578947 z m -16.105263,2.526316 c -0.31579,-1.578947 -1.263158,-2.526316 -2.842105,-3.157895 v -1.263157 h 18.315789 v 1.263157 c -0.631579,0.315789 -1.263158,0.631579 -1.894737,1.263158 -0.947369,1.263158 -1.263158,2.526316 -1.263158,4.736842 0,1.578948 1.263158,2.210526 2.210526,2.842106 l 0.31579,0.315789 c -0.631579,1.263158 -1.263158,2.210526 -2.526316,2.842105 -0.631579,0.31579 -1.263158,0.31579 -1.894737,0.31579 -1.578947,0.315789 -3.157894,0.947368 -4.105263,2.210526 -0.947368,-1.263158 -2.526316,-2.210526 -4.105263,-2.210526 -0.631579,0 -1.263158,0 -1.894737,-0.31579 C 67.605259,33.342105 66.97368,32.394737 66.342101,31.131579 66.97368,30.81579 67.605259,30.5 67.921049,29.868421 c 0.947368,-1.263158 0.947368,-3.157894 0.631579,-4.736842 z"
   id="path7235-4" /><path
   style="fill:#9898ff;fill-opacity:1;stroke-width:0.5;stroke-linecap:round;stroke-linejoin:round;paint-order:markers fill stroke"
   d="m 84.342101,60.657891 c 1.578948,0 1.578948,-3.157895 0,-3.157895 H 59.078943 v 3.157895 h 6.31579 v 3.157895 h -1.578947 v 4.736842 c 0,0 3.157894,0 3.157894,3.157895 0,3.157894 -3.157894,3.157894 -3.157894,3.157894 0,0 1.578947,6.315789 6.315789,6.315789 4.736842,0 4.736842,6.31579 4.736842,6.31579 0,0 0,-6.31579 4.736842,-6.31579 4.736842,0 6.31579,-6.315789 6.31579,-6.315789 0,0 -3.157895,0 -3.157895,-3.157894 0,-3.157895 3.157895,-3.157895 3.157895,-3.157895 v -4.736842 h -1.578948 z m -1.578947,3.157895 H 66.97368 V 60.657891 H 82.763154 Z M 67.28947,70.131575 C 66.657891,69.184206 65.710523,68.236838 64.447364,67.921049 V 64.447364 H 85.28947 v 3.473685 l -0.31579,0.315789 c -0.947368,0.31579 -2.210526,0.947368 -2.526316,1.894737 -0.315789,0.947368 -0.315789,2.210526 0,3.157894 0.31579,1.263159 1.263159,1.894737 2.526316,2.210527 -0.947368,2.526316 -2.210526,4.736842 -5.052631,5.052632 -2.526316,0 -4.421053,1.578947 -5.052632,3.473684 -0.631579,-1.894737 -2.526316,-3.473684 -4.421053,-3.473684 -0.947368,0 -1.894736,-0.31579 -2.842105,-0.947369 -1.263158,-0.947368 -2.210526,-2.526316 -2.842105,-4.105263 0,-0.31579 -0.31579,0 0,0 1.263158,-0.31579 2.210526,-1.263158 2.526316,-2.210527 0.315789,-0.947368 0.315789,-2.210526 0,-3.157894 z M 84.657891,67.605259 V 65.078943 H 65.078943 v 2.526316 c 1.263158,0.31579 2.526316,1.263158 2.842106,2.526316 0.315789,1.263158 0.315789,2.526316 -0.31579,3.789474 -0.315789,0.947368 -1.263158,1.578947 -2.210526,1.894737 0.631579,1.578947 1.578947,2.842105 2.842105,3.789473 0.631579,0.31579 1.578948,0.31579 2.210526,0.31579 1.578948,0 3.157895,0.947368 4.105264,2.210526 0,0.315789 0.315789,0.631579 0.315789,0.631579 0.631579,-1.263158 2.210526,-2.210526 3.473684,-2.526316 0.631579,0 1.263158,-0.315789 1.894737,-0.315789 2.210526,-0.631579 3.473685,-2.210526 4.105263,-4.105263 -1.263158,-0.31579 -2.842105,-1.578948 -2.842105,-2.842106 0,-1.578947 0,-2.526316 0.631579,-3.789474 0.631579,-0.947368 1.578948,-1.263157 2.526316,-1.578947 z M 68.552628,70.131575 C 68.236838,68.552628 67.28947,67.605259 65.710523,66.97368 v -1.263157 h 18.315789 v 1.263157 c -0.631579,0.315789 -1.263158,0.631579 -1.894737,1.263158 -0.947369,1.263158 -1.263158,2.526316 -1.263158,4.736842 0,1.578948 1.263158,2.210526 2.210526,2.842106 l 0.31579,0.315789 c -0.631579,1.263158 -1.263158,2.210526 -2.526316,2.842105 -0.631579,0.31579 -1.263158,0.31579 -1.894737,0.31579 -1.578947,0.315789 -3.157894,0.947368 -4.105263,2.210526 -0.947368,-1.263158 -2.526316,-2.210526 -4.105263,-2.210526 -0.631579,0 -1.263158,0 -1.894737,-0.31579 -1.263158,-0.631579 -1.894737,-1.578947 -2.526316,-2.842105 0.631579,-0.315789 1.263158,-0.631579 1.578948,-1.263158 0.947368,-1.263158 0.947368,-3.157894 0.631579,-4.736842 z"
   id="path7235-41" /><path
   style="fill:#9898ff;fill-opacity:1;stroke-width:0.5;stroke-linecap:round;stroke-linejoin:round;paint-order:markers fill stroke"
   d="m 39.342105,60.657891 c 1.578948,0 1.578948,-3.157895 0,-3.157895 H 14.078947 v 3.157895 h 6.31579 v 3.157895 H 18.81579 v 4.736842 c 0,0 3.157894,0 3.157894,3.157895 0,3.157894 -3.157894,3.157894 -3.157894,3.157894 0,0 1.578947,6.315789 6.315789,6.315789 4.736842,0 4.736842,6.31579 4.736842,6.31579 0,0 0,-6.31579 4.736842,-6.31579 4.736842,0 6.31579,-6.315789 6.31579,-6.315789 0,0 -3.157895,0 -3.157895,-3.157894 0,-3.157895 3.157895,-3.157895 3.157895,-3.157895 v -4.736842 h -1.578948 z m -1.578947,3.157895 H 21.973684 v -3.157895 h 15.789474 z m -15.473684,6.315789 c -0.631579,-0.947369 -1.578947,-1.894737 -2.842106,-2.210526 v -3.473685 h 20.842106 v 3.473685 l -0.31579,0.315789 c -0.947368,0.31579 -2.210526,0.947368 -2.526316,1.894737 -0.315789,0.947368 -0.315789,2.210526 0,3.157894 0.31579,1.263159 1.263159,1.894737 2.526316,2.210527 -0.947368,2.526316 -2.210526,4.736842 -5.052631,5.052632 -2.526316,0 -4.421053,1.578947 -5.052632,3.473684 -0.631579,-1.894737 -2.526316,-3.473684 -4.421053,-3.473684 -0.947368,0 -1.894736,-0.31579 -2.842105,-0.947369 -1.263158,-0.947368 -2.210526,-2.526316 -2.842105,-4.105263 0,-0.31579 -0.31579,0 0,0 1.263158,-0.31579 2.210526,-1.263158 2.526316,-2.210527 0.315789,-0.947368 0.315789,-2.210526 0,-3.157894 z M 39.657895,67.605259 V 65.078943 H 20.078947 v 2.526316 c 1.263158,0.31579 2.526316,1.263158 2.842106,2.526316 0.315789,1.263158 0.315789,2.526316 -0.31579,3.789474 -0.315789,0.947368 -1.263158,1.578947 -2.210526,1.894737 0.631579,1.578947 1.578947,2.842105 2.842105,3.789473 0.631579,0.31579 1.578948,0.31579 2.210526,0.31579 1.578948,0 3.157895,0.947368 4.105264,2.210526 0,0.315789 0.315789,0.631579 0.315789,0.631579 0.631579,-1.263158 2.210526,-2.210526 3.473684,-2.526316 0.631579,0 1.263158,-0.315789 1.894737,-0.315789 2.210526,-0.631579 3.473685,-2.210526 4.105263,-4.105263 C 38.078947,75.499996 36.5,74.236838 36.5,72.97368 c 0,-1.578947 0,-2.526316 0.631579,-3.789474 0.631579,-0.947368 1.578948,-1.263157 2.526316,-1.578947 z m -16.105263,2.526316 c -0.31579,-1.578947 -1.263158,-2.526316 -2.842105,-3.157895 v -1.263157 h 18.315789 v 1.263157 c -0.631579,0.315789 -1.263158,0.631579 -1.894737,1.263158 -0.947369,1.263158 -1.263158,2.526316 -1.263158,4.736842 0,1.578948 1.263158,2.210526 2.210526,2.842106 l 0.31579,0.315789 c -0.631579,1.263158 -1.263158,2.210526 -2.526316,2.842105 -0.631579,0.31579 -1.263158,0.31579 -1.894737,0.31579 -1.578947,0.315789 -3.157894,0.947368 -4.105263,2.210526 -0.947368,-1.263158 -2.526316,-2.210526 -4.105263,-2.210526 -0.631579,0 -1.263158,0 -1.894737,-0.31579 -1.263158,-0.631579 -1.894737,-1.578947 -2.526316,-2.842105 0.631579,-0.315789 1.263158,-0.631579 1.578948,-1.263158 0.947368,-1.263158 0.947368,-3.157894 0.631579,-4.736842 z"
   id="path7235-5" /></svg>
