<?xml version="1.0" encoding="UTF-8" standalone="no"?>
<!-- Created with Inkscape (http://www.inkscape.org/) -->

<svg
   width="100mm"
   height="100mm"
   version="1.1"
   viewBox="0 0 100 100"
   xml:space="preserve"
   id="svg188"
   sodipodi:docname="stuff_feature_Ballistic_Weapon_Group.svg"
   inkscape:version="1.2 (dc2aedaf03, 2022-05-15)"
   xmlns:inkscape="http://www.inkscape.org/namespaces/inkscape"
   xmlns:sodipodi="http://sodipodi.sourceforge.net/DTD/sodipodi-0.dtd"
   xmlns="http://www.w3.org/2000/svg"
   xmlns:svg="http://www.w3.org/2000/svg"><path
   id="rect21923"
   style="fill:#00004d;stroke-width:0.499999;stroke-linecap:round;stroke-linejoin:round;paint-order:markers fill stroke;fill-opacity:1"
   d="M 0 0 L 0 100.0001 L 100.0001 100.0001 L 100.0001 0 L 0 0 z M 5.0002116 5.0002116 L 94.999886 5.0002116 L 94.999886 94.999886 L 5.0002116 94.999886 L 5.0002116 5.0002116 z " /><defs
   id="defs192" /><sodipodi:namedview
   id="namedview190"
   pagecolor="#ffffff"
   bordercolor="#000000"
   borderopacity="0.25"
   inkscape:showpageshadow="2"
   inkscape:pageopacity="0.0"
   inkscape:pagecheckerboard="0"
   inkscape:deskcolor="#d1d1d1"
   inkscape:document-units="mm"
   showgrid="true"
   inkscape:zoom="1.1150485"
   inkscape:cx="-51.118853"
   inkscape:cy="295.95125"
   inkscape:window-width="3440"
   inkscape:window-height="1369"
   inkscape:window-x="1352"
   inkscape:window-y="-8"
   inkscape:window-maximized="1"
   inkscape:current-layer="svg188"><inkscape:grid
     type="xygrid"
     id="grid194"
     units="mm"
     spacingx="0.99999999"
     spacingy="0.99999999" /></sodipodi:namedview>

<rect
   style="fill:#00004d;fill-opacity:1;stroke-width:0.499999;stroke-linecap:round;stroke-linejoin:round;paint-order:markers fill stroke"
   id="rect22291"
   width="35"
   height="35"
   x="10"
   y="10" /><rect
   style="fill:#00004d;fill-opacity:1;stroke-width:0.499999;stroke-linecap:round;stroke-linejoin:round;paint-order:markers fill stroke"
   id="rect22293"
   width="35"
   height="35"
   x="55"
   y="10" /><rect
   style="fill:#00004d;fill-opacity:1;stroke-width:0.499999;stroke-linecap:round;stroke-linejoin:round;paint-order:markers fill stroke"
   id="rect22295"
   width="35"
   height="35"
   x="10"
   y="54.999996" /><rect
   style="fill:#00004d;fill-opacity:1;stroke-width:0.499999;stroke-linecap:round;stroke-linejoin:round;paint-order:markers fill stroke"
   id="rect22297"
   width="35"
   height="35"
   x="54.999996"
   y="54.999996" /><path
   style="fill:#9898ff;fill-opacity:1;stroke-width:0.5;stroke-linecap:round;stroke-linejoin:round;paint-order:markers fill stroke"
   d="M 32.3,21.2 C 26.9,16.1 19.7,12.5 12.5,12.5 V 14 l 1.5,27 27,1.5 c 0,0 1.5,0 1.5,0 0,-7.2 -3.6,-14.4 -8.7,-19.8 L 38,18.5 v 3 l 4.5,-9 -9,4.5 h 3 c 0,0 -4.2,4.2 -4.2,4.2 z M 15.5,38 14,14 c 6,0.6 12.3,3.9 17.1,8.4 z M 17,39.5 32.6,23.9 C 37.1,28.7 40.4,35 41,41 Z"
   id="path7235" /><path
   style="fill:#9898ff;fill-opacity:1;stroke-width:0.5;stroke-linecap:round;stroke-linejoin:round;paint-order:markers fill stroke"
   d="m 77.299999,21.2 c -5.4,-5.1 -12.6,-8.7 -19.8,-8.7 V 14 l 1.5,27 27,1.5 c 0,0 1.5,0 1.5,0 0,-7.2 -3.6,-14.4 -8.7,-19.8 l 4.2,-4.2 v 3 l 4.5,-9 -9,4.5 h 3 c 0,0 -4.2,4.2 -4.2,4.2 z m -16.8,16.8 -1.5,-24 c 6,0.6 12.3,3.9 17.1,8.4 z m 1.5,1.5 15.6,-15.6 c 4.5,4.8 7.8,11.1 8.4,17.1 z"
   id="path7235-3" /><path
   style="fill:#9898ff;fill-opacity:1;stroke-width:0.5;stroke-linecap:round;stroke-linejoin:round;paint-order:markers fill stroke"
   d="m 77.299999,66.199999 c -5.4,-5.1 -12.6,-8.7 -19.8,-8.7 v 1.5 l 1.5,27 27,1.5 c 0,0 1.5,0 1.5,0 0,-7.2 -3.6,-14.4 -8.7,-19.8 l 4.2,-4.2 v 3 l 4.5,-9 -9,4.5 h 3 c 0,0 -4.2,4.2 -4.2,4.2 z m -16.8,16.8 -1.5,-24 c 6,0.6 12.3,3.9 17.1,8.4 z m 1.5,1.5 15.6,-15.6 c 4.5,4.8 7.8,11.1 8.4,17.1 z"
   id="path7235-31" /><path
   style="fill:#9898ff;fill-opacity:1;stroke-width:0.5;stroke-linecap:round;stroke-linejoin:round;paint-order:markers fill stroke"
   d="m 32.3,66.199999 c -5.4,-5.1 -12.6,-8.7 -19.8,-8.7 v 1.5 l 1.5,27 27,1.5 c 0,0 1.5,0 1.5,0 0,-7.2 -3.6,-14.4 -8.7,-19.8 l 4.2,-4.2 v 3 l 4.5,-9 -9,4.5 h 3 c 0,0 -4.2,4.2 -4.2,4.2 z m -16.8,16.8 -1.5,-24 c 6,0.6 12.3,3.9 17.1,8.4 z m 1.5,1.5 15.6,-15.6 c 4.5,4.8 7.8,11.1 8.4,17.1 z"
   id="path7235-8" /></svg>
