<?xml version="1.0" encoding="UTF-8" standalone="no"?>
<!-- Created with Inkscape (http://www.inkscape.org/) -->

<svg
   width="100mm"
   height="100mm"
   version="1.1"
   viewBox="0 0 100 100"
   xml:space="preserve"
   id="svg188"
   sodipodi:docname="stuff_feature_Container_Group.svg"
   inkscape:version="1.2 (dc2aedaf03, 2022-05-15)"
   xmlns:inkscape="http://www.inkscape.org/namespaces/inkscape"
   xmlns:sodipodi="http://sodipodi.sourceforge.net/DTD/sodipodi-0.dtd"
   xmlns="http://www.w3.org/2000/svg"
   xmlns:svg="http://www.w3.org/2000/svg"><path
   id="rect17972"
   style="fill:#00004d;stroke-width:0.499999;stroke-linecap:round;stroke-linejoin:round;paint-order:markers fill stroke"
   d="M 0 0 L 0 100.0001 L 100.0001 100.0001 L 100.0001 0 L 0 0 z M 5.0002116 5.0002116 L 94.999886 5.0002116 L 94.999886 94.999886 L 5.0002116 94.999886 L 5.0002116 5.0002116 z " /><defs
   id="defs192" /><sodipodi:namedview
   id="namedview190"
   pagecolor="#ffffff"
   bordercolor="#000000"
   borderopacity="0.25"
   inkscape:showpageshadow="2"
   inkscape:pageopacity="0.0"
   inkscape:pagecheckerboard="0"
   inkscape:deskcolor="#d1d1d1"
   inkscape:document-units="mm"
   showgrid="true"
   inkscape:zoom="1.1150485"
   inkscape:cx="-130.03919"
   inkscape:cy="295.95125"
   inkscape:window-width="3440"
   inkscape:window-height="1369"
   inkscape:window-x="1352"
   inkscape:window-y="-8"
   inkscape:window-maximized="1"
   inkscape:current-layer="svg188"><inkscape:grid
     type="xygrid"
     id="grid194"
     units="mm"
     spacingx="0.99999999"
     spacingy="0.99999999" /></sodipodi:namedview>

<rect
   style="fill:#00004d;stroke-width:0.499999;stroke-linecap:round;stroke-linejoin:round;paint-order:markers fill stroke"
   id="rect17977"
   width="35"
   height="35"
   x="10"
   y="10" /><rect
   style="fill:#00004d;stroke-width:0.499999;stroke-linecap:round;stroke-linejoin:round;paint-order:markers fill stroke"
   id="rect17979"
   width="35"
   height="35"
   x="54.999996"
   y="10" /><rect
   style="fill:#00004d;stroke-width:0.499999;stroke-linecap:round;stroke-linejoin:round;paint-order:markers fill stroke"
   id="rect17981"
   width="35"
   height="35"
   x="54.999996"
   y="54.999996" /><rect
   style="fill:#00004d;stroke-width:0.499999;stroke-linecap:round;stroke-linejoin:round;paint-order:markers fill stroke"
   id="rect17983"
   width="35"
   height="35"
   x="10"
   y="54.999996" /><path
   style="fill:#9898ff;fill-opacity:1;stroke-width:0.5;stroke-linecap:round;stroke-linejoin:round;paint-order:markers fill stroke"
   d="M 33.5,14 29,17 c 0,0 0,-4.5 -1.5,-4.5 L 26,17 c 0,0 -3,-3 -4.5,-1.5 l 3,3 c 0,0 -2.7,-0.3 -4.5,1.5 1.5,1.2 2.4,2.1 3.9,2.4 2.1,0 4.2,0.3 6.3,0.3 0,0 0,-0.3 0,-0.3 2.7,-0.6 6.9,-1.8 7.8,-3.9 h -7.5 c 0,0 4.5,-3 3,-4.5 z M 23,29 c 0,-1.2 0,-2.4 3,-4.8 -0.9,0 -1.8,-0.3 -2.7,-0.3 -6,5.1 -10.8,9 -10.8,12.6 0,4.5 7.5,6 15,6 7.5,0 15,-1.5 15,-6 0,-3.6 -5.1,-7.5 -10.8,-12.6 -0.9,0 -1.5,0.3 -2.4,0.3 1.5,1.5 2.7,3.9 2.7,4.8 0,1.5 -1.5,4.5 -3,6 -1.5,1.5 -3,1.5 -1.5,0 1.5,-1.5 3,-4.5 3,-6 l -3,-4.5 c 0,0 -3,3 -3,4.5 0,1.5 -1.5,1.5 -1.5,0 z"
   id="path7235" /><path
   style="fill:#9898ff;fill-opacity:1;stroke-width:0.5;stroke-linecap:round;stroke-linejoin:round;paint-order:markers fill stroke"
   d="m 78.499999,14 -4.5,3 c 0,0 0,-4.5 -1.5,-4.5 l -1.5,4.5 c 0,0 -3,-3 -4.5,-1.5 l 3,3 c 0,0 -2.7,-0.3 -4.5,1.5 1.5,1.2 2.4,2.1 3.9,2.4 2.1,0 4.2,0.3 6.3,0.3 0,0 0,-0.3 0,-0.3 2.7,-0.6 6.9,-1.8 7.8,-3.9 h -7.5 c 0,0 4.5,-3 3,-4.5 z m -10.5,15 c 0,-1.2 0,-2.4 3,-4.8 -0.9,0 -1.8,-0.3 -2.7,-0.3 -6,5.1 -10.8,9 -10.8,12.6 0,4.5 7.5,6 15,6 7.5,0 15,-1.5 15,-6 0,-3.6 -5.1,-7.5 -10.8,-12.6 -0.9,0 -1.5,0.3 -2.4,0.3 1.5,1.5 2.7,3.9 2.7,4.8 0,1.5 -1.5,4.5 -3,6 -1.5,1.5 -3,1.5 -1.5,0 1.5,-1.5 3,-4.5 3,-6 l -3,-4.5 c 0,0 -3,3 -3,4.5 0,1.5 -1.5,1.5 -1.5,0 z"
   id="path7235-9" /><path
   style="fill:#9898ff;fill-opacity:1;stroke-width:0.5;stroke-linecap:round;stroke-linejoin:round;paint-order:markers fill stroke"
   d="m 78.499999,58.999999 -4.5,3 c 0,0 0,-4.5 -1.5,-4.5 l -1.5,4.5 c 0,0 -3,-3 -4.5,-1.5 l 3,3 c 0,0 -2.7,-0.3 -4.5,1.5 1.5,1.2 2.4,2.1 3.9,2.4 2.1,0 4.2,0.3 6.3,0.3 0,0 0,-0.3 0,-0.3 2.7,-0.6 6.9,-1.8 7.8,-3.9 h -7.5 c 0,0 4.5,-3 3,-4.5 z m -10.5,15 c 0,-1.2 0,-2.4 3,-4.8 -0.9,0 -1.8,-0.3 -2.7,-0.3 -6,5.1 -10.8,9 -10.8,12.6 0,4.5 7.5,6 15,6 7.5,0 15,-1.5 15,-6 0,-3.6 -5.1,-7.5 -10.8,-12.6 -0.9,0 -1.5,0.3 -2.4,0.3 1.5,1.5 2.7,3.9 2.7,4.8 0,1.5 -1.5,4.5 -3,6 -1.5,1.5 -3,1.5 -1.5,0 1.5,-1.5 3,-4.5 3,-6 l -3,-4.5 c 0,0 -3,3 -3,4.5 0,1.5 -1.5,1.5 -1.5,0 z"
   id="path7235-8" /><path
   style="fill:#9898ff;fill-opacity:1;stroke-width:0.5;stroke-linecap:round;stroke-linejoin:round;paint-order:markers fill stroke"
   d="m 33.5,58.999999 -4.5,3 c 0,0 0,-4.5 -1.5,-4.5 l -1.5,4.5 c 0,0 -3,-3 -4.5,-1.5 l 3,3 c 0,0 -2.7,-0.3 -4.5,1.5 1.5,1.2 2.4,2.1 3.9,2.4 2.1,0 4.2,0.3 6.3,0.3 0,0 0,-0.3 0,-0.3 2.7,-0.6 6.9,-1.8 7.8,-3.9 h -7.5 c 0,0 4.5,-3 3,-4.5 z m -10.5,15 c 0,-1.2 0,-2.4 3,-4.8 -0.9,0 -1.8,-0.3 -2.7,-0.3 -6,5.1 -10.8,9 -10.8,12.6 0,4.5 7.5,6 15,6 7.5,0 15,-1.5 15,-6 0,-3.6 -5.1,-7.5 -10.8,-12.6 -0.9,0 -1.5,0.3 -2.4,0.3 1.5,1.5 2.7,3.9 2.7,4.8 0,1.5 -1.5,4.5 -3,6 -1.5,1.5 -3,1.5 -1.5,0 1.5,-1.5 3,-4.5 3,-6 l -3,-4.5 c 0,0 -3,3 -3,4.5 0,1.5 -1.5,1.5 -1.5,0 z"
   id="path7235-6" /></svg>
