<?xml version="1.0" encoding="UTF-8" standalone="no"?>
<!-- Created with Inkscape (http://www.inkscape.org/) -->

<svg
   width="100mm"
   height="100mm"
   version="1.1"
   viewBox="0 0 100 100"
   xml:space="preserve"
   id="svg188"
   sodipodi:docname="stuff_feature_Service_Malus.svg"
   inkscape:version="1.2 (dc2aedaf03, 2022-05-15)"
   xmlns:inkscape="http://www.inkscape.org/namespaces/inkscape"
   xmlns:sodipodi="http://sodipodi.sourceforge.net/DTD/sodipodi-0.dtd"
   xmlns="http://www.w3.org/2000/svg"
   xmlns:svg="http://www.w3.org/2000/svg"><defs
   id="defs192" /><sodipodi:namedview
   id="namedview190"
   pagecolor="#ffffff"
   bordercolor="#000000"
   borderopacity="0.25"
   inkscape:showpageshadow="2"
   inkscape:pageopacity="0.0"
   inkscape:pagecheckerboard="0"
   inkscape:deskcolor="#d1d1d1"
   inkscape:document-units="mm"
   showgrid="true"
   inkscape:zoom="1.1150485"
   inkscape:cx="-51.118853"
   inkscape:cy="295.95125"
   inkscape:window-width="3440"
   inkscape:window-height="1369"
   inkscape:window-x="1352"
   inkscape:window-y="-8"
   inkscape:window-maximized="1"
   inkscape:current-layer="svg188"><inkscape:grid
     type="xygrid"
     id="grid194"
     units="mm"
     spacingx="0.99999999"
     spacingy="0.99999999" /></sodipodi:namedview>

<path
   style="fill:#4a0000;fill-opacity:1;stroke-width:0.499999;stroke-linecap:round;stroke-linejoin:round;paint-order:markers fill stroke"
   d="m 50,94.999997 -45,-45 H 24.999999 V 5 h 49.999998 v 44.999997 h 20 z"
   id="path1071" /><path
   style="fill:#ff9898;fill-opacity:1;stroke-width:0.5;stroke-linecap:round;stroke-linejoin:round;paint-order:markers fill stroke"
   d="m 69.736842,30.263158 c 2.631579,0 2.631579,-5.263158 0,-5.263158 H 27.631579 v 5.263158 h 10.526316 v 5.263158 h -2.631579 v 7.894737 c 0,0 5.263158,0 5.263158,5.263158 0,5.263157 -5.263158,5.263157 -5.263158,5.263157 0,0 2.631579,10.526316 10.526316,10.526316 7.894736,0 7.894736,10.526316 7.894736,10.526316 0,0 0,-10.526316 7.894737,-10.526316 7.894737,0 10.526316,-10.526316 10.526316,-10.526316 0,0 -5.263158,0 -5.263158,-5.263157 0,-5.263158 5.263158,-5.263158 5.263158,-5.263158 v -7.894737 h -2.631579 z m -2.631579,5.263158 H 40.789474 V 30.263158 H 67.105263 Z M 41.31579,46.052632 C 40.263158,44.473684 38.684211,42.894737 36.578947,42.368421 V 36.578947 H 71.31579 v 5.789474 l -0.526316,0.526316 c -1.578948,0.526316 -3.684211,1.578947 -4.210527,3.157895 -0.526315,1.578947 -0.526315,3.68421 0,5.263157 0.526316,2.105264 2.105264,3.157895 4.210527,3.684211 -1.578948,4.210526 -3.684211,7.894737 -8.421053,8.421053 -4.210526,0 -7.368421,2.631579 -8.421053,5.789473 -1.052631,-3.157894 -4.210526,-5.789473 -7.368421,-5.789473 -1.578947,0 -3.157894,-0.526316 -4.736842,-1.578948 C 39.736842,60.263158 38.157895,57.631579 37.105263,55 c 0,-0.526316 -0.526316,0 0,0 2.105263,-0.526316 3.684211,-2.105263 4.210527,-3.684211 0.526315,-1.578947 0.526315,-3.68421 0,-5.263157 z M 70.263158,41.842105 V 37.631579 H 37.631579 v 4.210526 c 2.105263,0.526316 4.210526,2.105263 4.736842,4.210527 0.526316,2.105263 0.526316,4.210526 -0.526316,6.315789 -0.526315,1.578947 -2.105263,2.631579 -3.68421,3.157895 1.052631,2.631579 2.631579,4.736842 4.736842,6.315789 1.052631,0.526316 2.631579,0.526316 3.68421,0.526316 2.631579,0 5.263158,1.578947 6.842106,3.684211 0,0.526315 0.526315,1.052631 0.526315,1.052631 C 55,65 57.631579,63.421053 59.736842,62.894737 c 1.052632,0 2.105263,-0.526316 3.157895,-0.526316 3.68421,-1.052631 5.789474,-3.68421 6.842105,-6.842105 C 67.631579,55 65,52.894737 65,50.789474 c 0,-2.631579 0,-4.210527 1.052632,-6.31579 1.052631,-1.578947 2.631579,-2.105263 4.210526,-2.631579 z M 43.421053,46.052632 C 42.894737,43.421053 41.31579,41.842105 38.684211,40.789474 v -2.105263 h 30.526315 v 2.105263 c -1.052631,0.526315 -2.105263,1.052631 -3.157894,2.105263 -1.578948,2.105263 -2.105263,4.210526 -2.105263,7.894737 0,2.631579 2.105263,3.68421 3.68421,4.736842 l 0.526316,0.526316 c -1.052632,2.105263 -2.105263,3.68421 -4.210526,4.736842 -1.052632,0.526316 -2.105264,0.526316 -3.157895,0.526316 -2.631579,0.526315 -5.263158,1.578947 -6.842106,3.68421 -1.578947,-2.105263 -4.210526,-3.68421 -6.842105,-3.68421 -1.052631,0 -2.105263,0 -3.157895,-0.526316 -2.105263,-1.052632 -3.157894,-2.631579 -4.210526,-4.736842 1.052632,-0.526316 2.105263,-1.052632 2.631579,-2.105264 1.578947,-2.105263 1.578947,-5.263157 1.052632,-7.894736 z"
   id="path7235" /></svg>
