<?xml version="1.0" encoding="UTF-8" standalone="no"?>
<!-- Created with Inkscape (http://www.inkscape.org/) -->

<svg
   width="100mm"
   height="100mm"
   version="1.1"
   viewBox="0 0 100 100"
   xml:space="preserve"
   id="svg188"
   sodipodi:docname="stuff_feature_Consumable_Bonus.svg"
   inkscape:version="1.2 (dc2aedaf03, 2022-05-15)"
   xmlns:inkscape="http://www.inkscape.org/namespaces/inkscape"
   xmlns:sodipodi="http://sodipodi.sourceforge.net/DTD/sodipodi-0.dtd"
   xmlns="http://www.w3.org/2000/svg"
   xmlns:svg="http://www.w3.org/2000/svg"><defs
   id="defs192" /><sodipodi:namedview
   id="namedview190"
   pagecolor="#ffffff"
   bordercolor="#000000"
   borderopacity="0.25"
   inkscape:showpageshadow="2"
   inkscape:pageopacity="0.0"
   inkscape:pagecheckerboard="0"
   inkscape:deskcolor="#d1d1d1"
   inkscape:document-units="mm"
   showgrid="true"
   inkscape:zoom="1.1150485"
   inkscape:cx="-51.118853"
   inkscape:cy="295.95125"
   inkscape:window-width="3440"
   inkscape:window-height="1369"
   inkscape:window-x="1352"
   inkscape:window-y="-8"
   inkscape:window-maximized="1"
   inkscape:current-layer="svg188"><inkscape:grid
     type="xygrid"
     id="grid194"
     units="mm"
     spacingx="0.99999999"
     spacingy="0.99999999" /></sodipodi:namedview>

<path
   style="fill:#004a00;fill-opacity:1;stroke-width:0.499999;stroke-linecap:round;stroke-linejoin:round;paint-order:markers fill stroke"
   d="M 50,5 5,50 H 24.999999 V 94.999997 H 74.999997 V 50 h 20 z"
   id="path1071" /><path
   style="fill:#98ff98;fill-opacity:1;stroke-width:0.5;stroke-linecap:round;stroke-linejoin:round;paint-order:markers fill stroke"
   d="m 46.999305,75 c 0,0 0,0 0,0 -1.254902,-0.0502 -2.108235,-0.100393 -3.162353,-0.250981 -3.614117,-0.451765 -6.977255,-1.505882 -9.788235,-3.112157 -0.501961,-0.301176 -0.652549,-0.401568 -0.803137,-0.552157 -0.301177,-0.301176 -0.451765,-0.652549 -0.501961,-1.054117 0,-0.100392 0,-0.250981 0,-0.853333 0,-0.702746 -0.0502,-0.752942 0,-0.853334 0.100392,-0.351372 0.25098,-0.702745 0.501961,-0.953725 0.351372,-0.351373 0.702745,-0.501961 1.204706,-0.552157 h 0.0502 V 60.14196 53.465882 c 0,0 -0.150589,0 -0.150589,0 -1.054117,-0.100392 -2.058039,-0.652549 -2.81098,-1.40549 -0.501961,-0.501961 -0.803137,-1.054118 -0.903529,-1.656471 -0.0502,-0.351372 -0.100392,-0.853333 -0.0502,-1.154509 0.0502,-0.552157 0.200784,-0.953726 0.602353,-1.957647 0.25098,-0.602353 0.351372,-0.853334 0.401568,-1.15451 v -0.150589 c 0,0 0,-0.652549 0,-0.652549 0,-2.158431 0.150588,-4.517647 0.301177,-5.822745 0.0502,-0.451764 0.0502,-0.652549 0.0502,-0.853333 0,-0.501961 -0.100392,-0.853333 -0.401569,-1.104314 -0.100392,-0.100392 -0.200784,-0.200784 -0.552157,-0.451764 -0.451764,-0.301177 -0.702745,-0.652549 -0.953725,-1.254902 -0.501961,-1.204706 -0.451765,-2.710589 0.150588,-4.166275 0.602353,-1.355294 1.606275,-2.459608 2.760784,-3.061961 0.803138,-0.401568 1.505883,-0.50196 3.212549,-0.602352 0.451765,0 0.652549,0 0.853334,-0.0502 0.702745,-0.100393 1.154509,-0.250981 1.65647,-0.602353 0.150588,-0.100393 0.250981,-0.200785 0.652549,-0.552157 0.803137,-0.752941 1.305098,-1.104314 1.857255,-1.355294 0.552157,-0.301177 1.054118,-0.451765 1.606275,-0.451765 0.953725,-0.0502 1.857254,0.301176 2.961568,1.054118 0.401569,0.25098 0.752941,0.50196 1.606275,1.154509 0.903529,0.702745 1.355294,1.003922 1.857255,1.355294 0.200784,0.150589 0.301176,0.200785 0.50196,0.301177 0.853334,0.401569 1.706667,0.652549 2.660392,0.752941 0.250981,0.0502 0.853334,0.0502 1.15451,0.0502 0.602353,-0.0502 1.003922,-0.150588 1.756863,-0.301176 0.903529,-0.200785 1.40549,-0.250981 2.058039,-0.250981 0.752941,0 1.355294,0.150589 2.007843,0.501961 0.552157,0.25098 1.003922,0.602353 1.405491,1.003922 0.752941,0.702745 1.305098,1.706666 1.505882,2.710588 0.0502,0.150588 0.100392,0.702745 0.100392,0.853333 0,0.200785 0,0.702745 0,0.90353 -0.100392,0.903529 -0.401569,1.706666 -0.853333,2.309019 -0.100392,0.150588 -0.351373,0.401569 -0.451765,0.501961 l -0.100392,0.100392 v 1.054118 1.104313 c 0,0 3.212549,0 3.212549,0 2.108235,0 3.312941,0 3.413333,0 0.702745,0.0502 1.40549,0.401569 1.857255,0.953726 0.652549,0.752941 0.953725,1.756863 0.853333,2.81098 0,0.150589 -1.907451,16.614902 -1.957647,16.966275 -0.150588,1.204706 -1.054117,2.208627 -2.208627,2.509804 -0.351373,0.100392 -0.200784,0.100392 -2.810981,0.100392 h -2.359215 v 1.65647 1.656471 c 0,0 0.0502,0 0.0502,0 0.25098,0.0502 0.451765,0.0502 0.652549,0.150588 0.501961,0.25098 0.853333,0.652549 1.003921,1.15451 0.100393,0.25098 0.100393,0.301176 0.100393,1.003921 0,0.652549 0,0.853334 -0.0502,1.054118 -0.100393,0.401569 -0.351373,0.803137 -0.702746,1.054118 -0.301176,0.25098 -1.505882,0.903529 -2.359215,1.305098 -2.610196,1.204706 -5.571765,2.007843 -8.683922,2.309019 -0.602353,0.0502 -1.204706,0.100392 -1.957647,0.150589 -0.25098,0 -1.756862,0 -2.007843,0 z m 1.756863,-2.007844 c 0,0 0,0 0,0 2.56,-0.100392 5.12,-0.50196 7.479215,-1.254902 1.556079,-0.50196 3.011765,-1.154509 4.316863,-1.90745 l 0.200785,-0.100393 c 0,0 0,-0.451764 0,-0.451764 0,-0.250981 0,-0.401569 0,-0.401569 0,0 -0.0502,0 -0.100393,0.0502 -0.50196,0.301177 -1.204706,0.652549 -1.857255,0.953726 -2.81098,1.254902 -6.023529,2.007843 -9.436862,2.208627 -0.953726,0.0502 -2.30902,0.0502 -3.262745,0 -4.166275,-0.25098 -8.131765,-1.305098 -11.243922,-3.112157 -0.100392,-0.0502 -0.150588,-0.100392 -0.150588,-0.100392 0,0 0,0.150588 0,0.401569 v 0.451764 c 0,0 0.25098,0.150589 0.25098,0.150589 2.208628,1.254902 4.768628,2.158431 7.579608,2.660392 2.007843,0.351372 4.065883,0.501961 6.224314,0.451764 z m -0.90353,-3.96549 c 0,0 0,0 0,0 0.250981,-0.0502 0.451765,-0.100392 0.652549,-0.25098 0.250981,-0.150588 0.351373,-0.401569 0.451765,-0.702745 v -0.100392 l 0.0502,-9.838432 v -9.838431 c 0,0 -0.351372,0 -0.351372,0 -0.401569,0 -1.455687,0 -1.857255,0 h -0.351373 v 9.838431 9.838432 c 0,0 0.0502,0.100392 0.0502,0.100392 0.0502,0.200784 0.100393,0.301176 0.200785,0.451765 0.100392,0.150588 0.301176,0.301176 0.50196,0.401568 0.150589,0.0502 0.351373,0.100392 0.501961,0.100392 0,0 0.100392,0 0.150588,0 z M 40.122442,67.57098 c 0,0 0,0 0,0 0.501961,-0.150588 0.90353,-0.552157 0.953726,-1.104314 0,-0.0502 0,-3.212549 0,-9.487058 v -9.436863 c 0,0 -0.0502,0 -0.0502,0 -0.0502,0 -0.150588,-0.0502 -0.351373,-0.100392 -0.602353,-0.150588 -1.204706,-0.351373 -1.807058,-0.552157 -0.150589,-0.0502 -0.301177,-0.100392 -0.301177,-0.100392 0,0 0,1.957647 0,9.888627 v 9.888627 c 0,0 0.0502,0.100393 0.0502,0.100393 0.0502,0.100392 0.100392,0.301176 0.150588,0.401568 0.0502,0.100392 0.250981,0.250981 0.351373,0.301177 0.301176,0.200784 0.652549,0.301176 1.003921,0.200784 z m 15.661177,0 c 0,0 0,0 0,0 0.501961,-0.0502 0.903529,-0.401569 1.054117,-0.903529 l 0.0502,-0.150589 c 0,0 0,-9.838431 0,-9.838431 0,-5.421176 0,-9.888627 0,-9.888627 0,0 -0.150589,0.100392 -0.351373,0.150588 -0.602353,0.200784 -1.204706,0.351373 -1.807059,0.501961 l -0.351372,0.100392 v 9.487059 9.487058 c 0,0 0.0502,0.100393 0.0502,0.100393 0.0502,0.200784 0.150588,0.451764 0.301176,0.602352 0.301177,0.301177 0.652549,0.401569 1.054118,0.351373 z m 9.838431,-5.672157 c 0,0 0.100392,-0.0502 0.100392,-0.0502 0.150588,-0.0502 0.250981,-0.100392 0.351373,-0.200784 0.351372,-0.250981 0.602353,-0.552157 0.652549,-0.90353 0,-0.0502 0.401568,-3.865098 0.953725,-8.483137 0.702745,-5.973333 1.003922,-8.382745 1.003922,-8.533333 0.0502,-0.803137 -0.351373,-1.556078 -0.90353,-1.807059 -0.0502,-0.0502 -0.150588,-0.100392 -0.200784,-0.100392 l -0.100392,-0.0502 H 64.21656 60.953815 v 1.003921 0.953726 h 2.509804 2.509804 c 0,0 0.0502,0.0502 0.0502,0.0502 0.100392,0.0502 0.200784,0.100392 0.301176,0.150588 0.150588,0.100392 0.250981,0.351373 0.250981,0.552157 0,0.100392 -0.100393,1.455686 -0.803138,7.42902 -0.451764,4.015686 -0.853333,7.328627 -0.853333,7.378823 -0.0502,0.150588 -0.150588,0.301177 -0.25098,0.401569 -0.100393,0.100392 -0.150589,0.150588 -0.301177,0.200784 l -0.100392,0.0502 h -1.656471 -1.65647 v 0.953726 1.003921 h 2.309019 z m -2.208627,-3.614117 c 0,0 0,0 0,0 0,0 1.455686,-12.8 1.455686,-12.850196 v -0.0502 h -1.957647 -1.957647 v 6.425098 6.475294 c 0,0 1.204706,0 1.204706,0 0.853333,0 1.254902,0 1.254902,0 z M 34.500482,44.129412 v 0 V 36.6 c 0,0 0.0502,0 0.0502,0 0,0 0.0502,-0.0502 0.0502,-0.0502 0,0 0.200784,0.0502 0.401569,0.100392 1.505882,0.351373 2.158431,0.602353 4.116078,1.556078 0.752941,0.351373 1.003921,0.451765 1.355294,0.602353 1.706667,0.702745 2.911373,0.853334 4.367059,0.351373 0.25098,-0.100392 0.351372,-0.150588 0.903529,-0.351373 0.953726,-0.351372 1.455686,-0.50196 2.108235,-0.602353 0.250981,-0.0502 0.90353,-0.0502 1.15451,0 0.401569,0.0502 0.702745,0.100393 1.40549,0.301177 1.104314,0.25098 1.455687,0.351372 2.05804,0.25098 0.602353,-0.100392 1.154509,-0.25098 2.610196,-0.702745 1.054117,-0.351372 1.355294,-0.451765 2.007843,-0.602353 1.40549,-0.351372 2.007843,-0.602353 2.459608,-0.903529 0.401568,-0.250981 0.552157,-0.552157 0.702745,-1.054118 0.150588,-0.451765 0.200784,-0.903529 0.100392,-1.455686 -0.0502,-0.451765 -0.100392,-0.652549 -0.25098,-0.953726 -0.351373,-0.803137 -0.953726,-1.355294 -1.756863,-1.756862 -0.652549,-0.301177 -1.355294,-0.301177 -2.610196,0 -0.200785,0.0502 -0.401569,0.100392 -0.501961,0.100392 -2.007851,0.401572 -3.865106,0.30118 -5.621969,-0.401565 -0.301176,-0.100392 -0.552157,-0.25098 -0.853333,-0.401568 -0.250981,-0.100393 -0.351373,-0.200785 -0.602353,-0.351373 -0.552157,-0.401569 -1.054118,-0.752941 -2.007843,-1.505882 -0.803137,-0.652549 -1.054118,-0.803138 -1.40549,-1.054118 -0.602353,-0.401569 -1.003922,-0.552157 -1.455687,-0.652549 -0.150588,-0.0502 -0.50196,-0.100392 -0.652549,-0.0502 -0.351372,0.0502 -0.752941,0.25098 -1.204706,0.602353 -0.200784,0.150588 -0.451764,0.351372 -0.903529,0.752941 -0.552157,0.501961 -0.702745,0.652549 -1.054118,0.853333 -0.552156,0.351373 -1.154509,0.552157 -1.807058,0.652549 -0.351373,0.0502 -0.752942,0.100393 -1.556079,0.150589 -1.254902,0.0502 -1.756863,0.150588 -2.258823,0.401568 -1.054118,0.552157 -1.907451,1.756863 -2.158432,3.112157 -0.0502,0.200784 0,0.652549 0,0.853333 0.0502,0.401569 0.150589,0.752942 0.401569,1.104314 0.200784,0.301177 0.25098,0.301177 0.451765,0.401569 0.200784,0.0502 0.301176,0.100392 0.401568,0.200784 0.150589,0.100392 0.250981,0.200784 0.351373,0.351373 0.200784,0.301176 0.301176,0.602353 0.351372,1.054117 0,0.150589 0,0.501961 0,1.40549 0,1.505883 -0.0502,1.907451 -0.150588,3.764706 -0.100392,1.656471 -0.0502,2.258824 -0.0502,2.861177 0,0.451764 0,0.552157 -0.0502,0.853333 -0.100392,0.451765 -0.200784,0.752941 -0.602353,1.706667 -0.200784,0.552157 -0.301176,0.853333 -0.351372,1.15451 -0.0502,0.150588 -0.0502,0.200784 -0.0502,0.351372 0,0.301177 0,0.501961 0.0502,0.602353 0.100392,0.351373 0.451764,0.702745 0.853333,1.003922 0.100392,0.0502 0.25098,0.150588 0.401568,0.200784 0.200785,0.100392 0.652549,0.25098 0.752942,0.25098 h 0.0502 z m 13.854117,2.208627 c 0,0 0,0 0,0 1.254902,-0.0502 2.359216,-0.150588 3.513726,-0.351373 2.459608,-0.351372 4.869019,-1.104313 6.826666,-2.108235 l 0.250981,-0.150588 c 0,0 0,-2.359216 0,-2.359216 0,-1.305098 0,-2.409411 0,-2.409411 0,0 -0.100392,0.0502 -0.200785,0.100392 -0.301176,0.100392 -0.401568,0.150588 -1.054117,0.301176 -0.803137,0.200785 -0.90353,0.250981 -1.907451,0.552157 -1.204706,0.401569 -1.656471,0.501961 -2.258824,0.652549 -0.702745,0.150588 -1.15451,0.200784 -1.65647,0.200784 -0.552157,0 -0.90353,-0.0502 -1.857255,-0.301176 -0.90353,-0.25098 -1.204706,-0.301177 -1.606275,-0.301177 -0.200784,0 -0.25098,0.0502 -0.401568,0.0502 -0.401569,0.0502 -0.803138,0.200784 -1.756863,0.552156 -0.351373,0.150589 -0.803137,0.250981 -0.903529,0.301177 -0.501961,0.150588 -0.953726,0.301176 -1.556079,0.351372 -0.200784,0 -1.104314,0 -1.305098,0 C 41.628325,41.318434 40.875384,41.11765 39.971854,40.766277 39.52009,40.565493 39.168717,40.414905 38.36558,40.013336 37.512246,39.611768 37.110678,39.461179 36.658913,39.260395 l -0.150588,-0.100392 v 2.309019 2.30902 c 0,0 0.25098,0.100392 0.25098,0.100392 2.861177,1.455686 6.374902,2.258824 9.98902,2.409412 0.702745,0 1.054117,0.0502 1.606274,0.0502 z"
   id="path7235" /></svg>
