<?xml version="1.0" encoding="UTF-8" standalone="no"?>
<!-- Created with Inkscape (http://www.inkscape.org/) -->

<svg
   width="100mm"
   height="100mm"
   version="1.1"
   viewBox="0 0 100 100"
   xml:space="preserve"
   id="svg188"
   sodipodi:docname="stuff_feature_Consumable_Group.svg"
   inkscape:version="1.2 (dc2aedaf03, 2022-05-15)"
   xmlns:inkscape="http://www.inkscape.org/namespaces/inkscape"
   xmlns:sodipodi="http://sodipodi.sourceforge.net/DTD/sodipodi-0.dtd"
   xmlns="http://www.w3.org/2000/svg"
   xmlns:svg="http://www.w3.org/2000/svg"><path
   id="rect19998"
   style="fill:#00004b;stroke-width:0.499999;stroke-linecap:round;stroke-linejoin:round;paint-order:markers fill stroke;fill-opacity:1"
   d="M 0 0 L 0 100.0001 L 100.0001 100.0001 L 100.0001 0 L 0 0 z M 5.0002116 5.0002116 L 94.999886 5.0002116 L 94.999886 94.999886 L 5.0002116 94.999886 L 5.0002116 5.0002116 z " /><defs
   id="defs192" /><sodipodi:namedview
   id="namedview190"
   pagecolor="#ffffff"
   bordercolor="#000000"
   borderopacity="0.25"
   inkscape:showpageshadow="2"
   inkscape:pageopacity="0.0"
   inkscape:pagecheckerboard="0"
   inkscape:deskcolor="#d1d1d1"
   inkscape:document-units="mm"
   showgrid="true"
   inkscape:zoom="1.1150485"
   inkscape:cx="-130.03919"
   inkscape:cy="295.95125"
   inkscape:window-width="3440"
   inkscape:window-height="1369"
   inkscape:window-x="1352"
   inkscape:window-y="-8"
   inkscape:window-maximized="1"
   inkscape:current-layer="svg188"><inkscape:grid
     type="xygrid"
     id="grid194"
     units="mm"
     spacingx="0.99999999"
     spacingy="0.99999999" /></sodipodi:namedview>

<rect
   style="fill:#00004b;fill-opacity:1;stroke-width:0.499999;stroke-linecap:round;stroke-linejoin:round;paint-order:markers fill stroke"
   id="rect20991"
   width="35"
   height="35"
   x="10"
   y="10" /><rect
   style="fill:#00004b;fill-opacity:1;stroke-width:0.499999;stroke-linecap:round;stroke-linejoin:round;paint-order:markers fill stroke"
   id="rect20993"
   width="35"
   height="35"
   x="54.999996"
   y="10" /><path
   style="fill:#9898ff;fill-opacity:1;stroke-width:0.5;stroke-linecap:round;stroke-linejoin:round;paint-order:markers fill stroke"
   d="m 70.699585,42.499999 c 0,0 0,0 0,0 -0.752941,-0.03012 -1.264941,-0.06024 -1.897412,-0.150589 -2.16847,-0.271059 -4.186353,-0.903529 -5.872941,-1.867294 -0.301176,-0.180705 -0.391529,-0.240941 -0.481882,-0.331294 -0.180706,-0.180706 -0.271059,-0.391529 -0.301176,-0.63247 0,-0.06023 0,-0.150589 0,-0.512 0,-0.421648 -0.03012,-0.451765 0,-0.512 0.06023,-0.210823 0.150588,-0.421647 0.301176,-0.572235 0.210824,-0.210824 0.421647,-0.301177 0.722824,-0.331294 h 0.03012 v -4.005648 -4.005646 c 0,0 -0.09035,0 -0.09035,0 -0.63247,-0.06023 -1.234823,-0.391529 -1.686587,-0.843294 -0.301177,-0.301176 -0.481883,-0.632471 -0.542118,-0.993882 -0.03012,-0.210824 -0.06023,-0.512 -0.03012,-0.692706 0.03012,-0.331294 0.120471,-0.572235 0.361412,-1.174588 0.150588,-0.361412 0.210823,-0.512 0.240941,-0.692706 v -0.09035 c 0,0 0,-0.39153 0,-0.39153 0,-1.295058 0.09035,-2.710588 0.180706,-3.493646 0.03012,-0.271059 0.03012,-0.39153 0.03012,-0.512 0,-0.301177 -0.06024,-0.512 -0.240941,-0.662588 -0.06024,-0.06024 -0.120471,-0.120471 -0.331295,-0.271059 -0.271058,-0.180706 -0.421647,-0.391529 -0.572235,-0.752941 -0.301176,-0.722823 -0.271058,-1.626353 0.09035,-2.499765 0.361412,-0.813176 0.963765,-1.475764 1.656471,-1.837176 0.481882,-0.240941 0.903529,-0.301176 1.927529,-0.361411 0.271059,0 0.391529,0 0.512,-0.03012 0.421647,-0.06024 0.692705,-0.150589 0.993882,-0.361412 0.09035,-0.06024 0.150589,-0.120471 0.391529,-0.331294 0.481883,-0.451765 0.783059,-0.662589 1.114353,-0.813177 0.331295,-0.180706 0.632471,-0.271059 0.963765,-0.271059 0.572235,-0.03012 1.114353,0.180706 1.776941,0.632471 0.240941,0.150588 0.451764,0.301176 0.963765,0.692706 0.542117,0.421647 0.813176,0.602353 1.114353,0.813176 0.12047,0.09035 0.180705,0.120471 0.301176,0.180706 0.512,0.240941 1.024,0.391529 1.596235,0.451765 0.150588,0.03012 0.512,0.03012 0.692706,0.03012 0.361411,-0.03012 0.602353,-0.09035 1.054117,-0.180706 0.542118,-0.120471 0.843294,-0.150589 1.234824,-0.150589 0.451764,0 0.813176,0.09035 1.204705,0.301177 0.331295,0.150588 0.602354,0.361412 0.843295,0.602353 0.451765,0.421647 0.783059,1.024 0.903529,1.626353 0.03012,0.09035 0.06023,0.421647 0.06023,0.512 0,0.120471 0,0.421647 0,0.542118 -0.06023,0.542117 -0.240941,1.023999 -0.511999,1.385411 -0.06024,0.09035 -0.210824,0.240941 -0.271059,0.301176 l -0.06024,0.06024 v 0.63247 0.662588 c 0,0 1.92753,0 1.92753,0 1.26494,0 1.987764,0 2.047999,0 0.421647,0.03012 0.843294,0.240941 1.114353,0.572236 0.391529,0.451764 0.572235,1.054117 0.512,1.686588 0,0.09035 -1.144471,9.96894 -1.174588,10.179764 -0.09035,0.722823 -0.63247,1.325176 -1.325176,1.505882 -0.210824,0.06023 -0.120471,0.06023 -1.686589,0.06023 h -1.415529 v 0.993882 0.993883 c 0,0 0.03012,0 0.03012,0 0.150588,0.03012 0.271059,0.03012 0.39153,0.09035 0.301176,0.150588 0.511999,0.39153 0.602352,0.692706 0.06024,0.150588 0.06024,0.180706 0.06024,0.602353 0,0.391529 0,0.512 -0.03012,0.632471 -0.06024,0.240941 -0.210824,0.481882 -0.421648,0.63247 -0.180705,0.150588 -0.903529,0.542118 -1.415528,0.783059 -1.566118,0.722824 -3.343059,1.204706 -5.210353,1.385411 -0.361412,0.03012 -0.722824,0.06024 -1.174588,0.09035 -0.150588,0 -1.054117,0 -1.204706,0 z m 1.054117,-1.204707 c 0,0 0,0 0,0 1.536,-0.06023 3.072,-0.301176 4.487529,-0.752941 0.933647,-0.301176 1.807059,-0.692705 2.590118,-1.14447 l 0.120471,-0.06023 c 0,0 0,-0.271059 0,-0.271059 0,-0.150588 0,-0.240941 0,-0.240941 0,0 -0.03012,0 -0.06024,0.03012 -0.301176,0.180706 -0.722824,0.391529 -1.114353,0.572235 -1.686588,0.752942 -3.614117,1.204706 -5.662117,1.325176 -0.572235,0.03012 -1.385412,0.03012 -1.957647,0 -2.499764,-0.150587 -4.879058,-0.783058 -6.746352,-1.867294 -0.06024,-0.03012 -0.09035,-0.06023 -0.09035,-0.06023 0,0 0,0.09035 0,0.240942 v 0.271058 c 0,0 0.150588,0.09035 0.150588,0.09035 1.325177,0.752942 2.861176,1.295059 4.547764,1.596235 1.204706,0.210824 2.43953,0.301177 3.734588,0.271059 z m -0.542118,-2.379293 c 0,0 0,0 0,0 0.150589,-0.03012 0.271059,-0.06024 0.39153,-0.150588 0.150588,-0.09035 0.210824,-0.240942 0.271059,-0.421647 v -0.06023 l 0.03012,-5.903059 v -5.903058 c 0,0 -0.210823,0 -0.210823,0 -0.240942,0 -0.873413,0 -1.114353,0 h -0.210824 v 5.903058 5.903059 c 0,0 0.03012,0.06023 0.03012,0.06023 0.03012,0.12047 0.06024,0.180705 0.120471,0.271059 0.06023,0.09035 0.180705,0.180705 0.301176,0.24094 0.09035,0.03012 0.210824,0.06024 0.301176,0.06024 0,0 0.06024,0 0.09035,0 z m -4.638117,-0.873412 c 0,0 0,0 0,0 0.301177,-0.09035 0.542118,-0.331294 0.572236,-0.662588 0,-0.03012 0,-1.927529 0,-5.692235 v -5.662117 c 0,0 -0.03012,0 -0.03012,0 -0.03012,0 -0.09035,-0.03012 -0.210824,-0.06023 -0.361412,-0.09035 -0.722824,-0.210824 -1.084235,-0.331294 -0.09035,-0.03012 -0.180706,-0.06023 -0.180706,-0.06023 0,0 0,1.174588 0,5.933175 v 5.933176 c 0,0 0.03012,0.06024 0.03012,0.06024 0.03012,0.06023 0.06023,0.180705 0.09035,0.240941 0.03012,0.06023 0.150588,0.150588 0.210824,0.180706 0.180705,0.12047 0.391529,0.180705 0.602352,0.12047 z m 9.396706,0 c 0,0 0,0 0,0 0.301176,-0.03012 0.542117,-0.240941 0.63247,-0.542117 l 0.03012,-0.09035 c 0,0 0,-5.903058 0,-5.903058 0,-3.252705 0,-5.933175 0,-5.933175 0,0 -0.09035,0.06023 -0.210824,0.09035 -0.361412,0.120471 -0.722824,0.210824 -1.084235,0.301177 l -0.210824,0.06023 v 5.692235 5.692234 c 0,0 0.03012,0.06024 0.03012,0.06024 0.03012,0.120471 0.09035,0.271059 0.180706,0.361411 0.180706,0.180707 0.391529,0.240942 0.632471,0.210824 z m 5.903058,-3.403294 c 0,0 0.06023,-0.03012 0.06023,-0.03012 0.09035,-0.03012 0.150589,-0.06023 0.210824,-0.12047 0.210823,-0.150589 0.361411,-0.331294 0.391529,-0.542118 0,-0.03012 0.240941,-2.319059 0.572235,-5.089882 0.421647,-3.583999 0.602353,-5.029646 0.602353,-5.119999 0.03012,-0.481882 -0.210824,-0.933647 -0.542118,-1.084236 -0.03012,-0.03012 -0.09035,-0.06023 -0.12047,-0.06023 l -0.06023,-0.03012 H 81.029937 79.07229 v 0.602353 0.572235 h 1.505882 1.505883 c 0,0 0.03012,0.03012 0.03012,0.03012 0.06024,0.03012 0.120471,0.06024 0.180706,0.09035 0.09035,0.06023 0.150589,0.210824 0.150589,0.331294 0,0.06023 -0.06024,0.873412 -0.481883,4.457412 -0.271058,2.409411 -0.512,4.397176 -0.512,4.427293 -0.03012,0.09035 -0.09035,0.180707 -0.150588,0.240942 -0.06024,0.06023 -0.09035,0.09035 -0.180706,0.12047 l -0.06024,0.03012 H 80.06617 79.072288 v 0.572236 0.602352 H 80.4577 Z m -1.325176,-2.16847 c 0,0 0,0 0,0 0,0 0.873411,-7.679999 0.873411,-7.710117 v -0.03012 H 80.246878 79.07229 v 3.855059 3.885176 c 0,0 0.722823,0 0.722823,0 0.512,0 0.752942,0 0.752942,0 z M 63.200291,23.977647 v 0 -4.517646 c 0,0 0.03012,0 0.03012,0 0,0 0.03012,-0.03012 0.03012,-0.03012 0,0 0.120471,0.03012 0.240942,0.06024 0.903529,0.210824 1.295058,0.361412 2.469646,0.933647 0.451765,0.210823 0.602353,0.271059 0.813177,0.361411 1.024,0.421647 1.746823,0.512001 2.620235,0.210824 0.150588,-0.06023 0.210823,-0.09035 0.542117,-0.210824 0.572236,-0.210823 0.873412,-0.301176 1.264941,-0.361411 0.150589,-0.03012 0.542118,-0.03012 0.692706,0 0.240942,0.03012 0.421647,0.06023 0.843294,0.180706 0.662588,0.150588 0.873412,0.210823 1.234824,0.150588 0.361412,-0.06023 0.692705,-0.150588 1.566117,-0.421647 0.632471,-0.210823 0.813177,-0.271059 1.204706,-0.361412 0.843294,-0.210823 1.204706,-0.361412 1.475765,-0.542117 0.240941,-0.150589 0.331294,-0.331294 0.421647,-0.632471 0.09035,-0.271059 0.12047,-0.542117 0.06023,-0.873412 -0.03012,-0.271059 -0.06023,-0.391529 -0.150588,-0.572235 -0.210824,-0.481882 -0.572236,-0.813176 -1.054118,-1.054117 -0.391529,-0.180706 -0.813176,-0.180706 -1.566117,0 -0.120471,0.03012 -0.240942,0.06023 -0.301177,0.06023 -1.20471,0.240943 -2.319063,0.180708 -3.373181,-0.240939 -0.180705,-0.06023 -0.331294,-0.150588 -0.512,-0.240941 -0.150588,-0.06024 -0.210823,-0.120471 -0.361411,-0.210824 -0.331295,-0.240941 -0.632471,-0.451764 -1.204706,-0.903529 -0.481882,-0.391529 -0.632471,-0.481882 -0.843294,-0.63247 -0.361412,-0.240942 -0.602353,-0.331295 -0.873412,-0.39153 -0.09035,-0.03012 -0.301176,-0.06024 -0.39153,-0.03012 -0.210823,0.03012 -0.451764,0.150588 -0.722823,0.361412 -0.12047,0.09035 -0.271058,0.210823 -0.542117,0.451764 -0.331295,0.301177 -0.421647,0.39153 -0.632471,0.512 -0.331294,0.210824 -0.692706,0.331294 -1.084235,0.39153 -0.210824,0.03012 -0.451765,0.06024 -0.933647,0.09035 -0.752941,0.03012 -1.054118,0.09035 -1.355294,0.240941 -0.632471,0.331294 -1.14447,1.054117 -1.295059,1.867294 -0.03012,0.12047 0,0.391529 0,0.512 0.03012,0.240941 0.09035,0.451765 0.240941,0.662588 0.120471,0.180706 0.150588,0.180706 0.271059,0.240941 0.120471,0.03012 0.180706,0.06024 0.240941,0.120471 0.09035,0.06023 0.150589,0.12047 0.210824,0.210823 0.12047,0.180706 0.180706,0.361412 0.210823,0.632471 0,0.09035 0,0.301176 0,0.843294 0,0.903529 -0.03012,1.14447 -0.09035,2.258823 -0.06023,0.993882 -0.03012,1.355294 -0.03012,1.716706 0,0.271058 0,0.331294 -0.03012,0.512 -0.06023,0.271059 -0.12047,0.451764 -0.361411,1.024 -0.120471,0.331294 -0.180706,0.512 -0.210824,0.692706 -0.03012,0.09035 -0.03012,0.12047 -0.03012,0.210823 0,0.180706 0,0.301177 0.03012,0.361412 0.06024,0.210824 0.271059,0.421647 0.512,0.602353 0.06023,0.03012 0.150588,0.09035 0.240941,0.12047 0.120471,0.06024 0.391529,0.150588 0.451765,0.150588 h 0.03012 z m 8.31247,1.325177 c 0,0 0,0 0,0 0.752941,-0.03012 1.415529,-0.09035 2.108235,-0.210824 1.475765,-0.210823 2.921412,-0.662588 4.096,-1.264941 l 0.150588,-0.09035 c 0,0 0,-1.415529 0,-1.415529 0,-0.783059 0,-1.445647 0,-1.445647 0,0 -0.06023,0.03012 -0.120471,0.06023 -0.180705,0.06024 -0.240941,0.09035 -0.63247,0.180706 -0.481882,0.120471 -0.542118,0.150589 -1.14447,0.331294 -0.722824,0.240941 -0.993883,0.301177 -1.355295,0.391529 -0.421647,0.09035 -0.692706,0.120471 -0.993882,0.120471 -0.331294,0 -0.542118,-0.03012 -1.114353,-0.180706 -0.542117,-0.150588 -0.722823,-0.180706 -0.963764,-0.180706 -0.120471,0 -0.150588,0.03012 -0.240941,0.03012 -0.240942,0.03012 -0.481883,0.12047 -1.054118,0.331294 -0.210824,0.09035 -0.481882,0.150588 -0.542117,0.180706 -0.301177,0.09035 -0.572236,0.180705 -0.933648,0.210823 -0.12047,0 -0.662588,0 -0.783058,0 -0.512,-0.06023 -0.963765,-0.180706 -1.505883,-0.391529 -0.271058,-0.120471 -0.481882,-0.210824 -0.963764,-0.451765 -0.512,-0.240941 -0.752941,-0.331294 -1.024,-0.451764 L 64.405,20.995996 v 1.385412 1.385412 c 0,0 0.150588,0.06023 0.150588,0.06023 1.716706,0.873411 3.824941,1.355294 5.993412,1.445647 0.421647,0 0.63247,0.03012 0.963764,0.03012 z"
   id="path7235-2" /><rect
   style="fill:#00004b;fill-opacity:1;stroke-width:0.499999;stroke-linecap:round;stroke-linejoin:round;paint-order:markers fill stroke"
   id="rect20995"
   width="35"
   height="35"
   x="54.999996"
   y="54.999996" /><path
   style="fill:#9898ff;fill-opacity:1;stroke-width:0.5;stroke-linecap:round;stroke-linejoin:round;paint-order:markers fill stroke"
   d="m 70.699585,87.499999 c 0,0 0,0 0,0 -0.752941,-0.03012 -1.264941,-0.06024 -1.897412,-0.150589 -2.16847,-0.271059 -4.186353,-0.903529 -5.872941,-1.867294 -0.301176,-0.180705 -0.391529,-0.240941 -0.481882,-0.331294 -0.180706,-0.180706 -0.271059,-0.391529 -0.301176,-0.63247 0,-0.06023 0,-0.150589 0,-0.512 0,-0.421648 -0.03012,-0.451765 0,-0.512 0.06023,-0.210823 0.150588,-0.421647 0.301176,-0.572235 0.210824,-0.210824 0.421647,-0.301177 0.722824,-0.331294 h 0.03012 v -4.005648 -4.005646 c 0,0 -0.09035,0 -0.09035,0 -0.63247,-0.06023 -1.234823,-0.391529 -1.686587,-0.843294 -0.301177,-0.301176 -0.481883,-0.632471 -0.542118,-0.993882 -0.03012,-0.210824 -0.06023,-0.512 -0.03012,-0.692706 0.03012,-0.331294 0.120471,-0.572235 0.361412,-1.174588 0.150588,-0.361412 0.210823,-0.512 0.240941,-0.692706 v -0.09035 c 0,0 0,-0.39153 0,-0.39153 0,-1.295058 0.09035,-2.710588 0.180706,-3.493646 0.03012,-0.271059 0.03012,-0.39153 0.03012,-0.512 0,-0.301177 -0.06024,-0.512 -0.240941,-0.662588 -0.06024,-0.06024 -0.120471,-0.120471 -0.331295,-0.271059 -0.271058,-0.180706 -0.421647,-0.391529 -0.572235,-0.752941 -0.301176,-0.722823 -0.271058,-1.626353 0.09035,-2.499765 0.361412,-0.813176 0.963765,-1.475764 1.656471,-1.837176 0.481882,-0.240941 0.903529,-0.301176 1.927529,-0.361411 0.271059,0 0.391529,0 0.512,-0.03012 0.421647,-0.06024 0.692705,-0.150589 0.993882,-0.361412 0.09035,-0.06024 0.150589,-0.120471 0.391529,-0.331294 0.481883,-0.451765 0.783059,-0.662589 1.114353,-0.813177 0.331295,-0.180706 0.632471,-0.271059 0.963765,-0.271059 0.572235,-0.03012 1.114353,0.180706 1.776941,0.632471 0.240941,0.150588 0.451764,0.301176 0.963765,0.692706 0.542117,0.421647 0.813176,0.602353 1.114353,0.813176 0.12047,0.09035 0.180705,0.120471 0.301176,0.180706 0.512,0.240941 1.024,0.391529 1.596235,0.451765 0.150588,0.03012 0.512,0.03012 0.692706,0.03012 0.361411,-0.03012 0.602353,-0.09035 1.054117,-0.180706 0.542118,-0.120471 0.843294,-0.150589 1.234824,-0.150589 0.451764,0 0.813176,0.09035 1.204705,0.301177 0.331295,0.150588 0.602354,0.361412 0.843295,0.602353 0.451765,0.421647 0.783059,1.024 0.903529,1.626353 0.03012,0.09035 0.06023,0.421647 0.06023,0.512 0,0.120471 0,0.421647 0,0.542118 -0.06023,0.542117 -0.240941,1.023999 -0.511999,1.385411 -0.06024,0.09035 -0.210824,0.240941 -0.271059,0.301176 l -0.06024,0.06024 v 0.63247 0.662588 c 0,0 1.92753,0 1.92753,0 1.26494,0 1.987764,0 2.047999,0 0.421647,0.03012 0.843294,0.240941 1.114353,0.572236 0.391529,0.451764 0.572235,1.054117 0.512,1.686588 0,0.09035 -1.144471,9.96894 -1.174588,10.179764 -0.09035,0.722823 -0.63247,1.325176 -1.325176,1.505882 -0.210824,0.06023 -0.120471,0.06023 -1.686589,0.06023 h -1.415529 v 0.993882 0.993883 c 0,0 0.03012,0 0.03012,0 0.150588,0.03012 0.271059,0.03012 0.39153,0.09035 0.301176,0.150588 0.511999,0.39153 0.602352,0.692706 0.06024,0.150588 0.06024,0.180706 0.06024,0.602353 0,0.391529 0,0.512 -0.03012,0.632471 -0.06024,0.240941 -0.210824,0.481882 -0.421648,0.63247 -0.180705,0.150588 -0.903529,0.542118 -1.415528,0.783059 -1.566118,0.722824 -3.343059,1.204706 -5.210353,1.385411 -0.361412,0.03012 -0.722824,0.06024 -1.174588,0.09035 -0.150588,0 -1.054117,0 -1.204706,0 z m 1.054117,-1.204707 c 0,0 0,0 0,0 1.536,-0.06023 3.072,-0.301176 4.487529,-0.752941 0.933647,-0.301176 1.807059,-0.692705 2.590118,-1.14447 l 0.120471,-0.06023 c 0,0 0,-0.271059 0,-0.271059 0,-0.150588 0,-0.240941 0,-0.240941 0,0 -0.03012,0 -0.06024,0.03012 -0.301176,0.180706 -0.722824,0.391529 -1.114353,0.572235 -1.686588,0.752942 -3.614117,1.204706 -5.662117,1.325176 -0.572235,0.03012 -1.385412,0.03012 -1.957647,0 -2.499764,-0.150587 -4.879058,-0.783058 -6.746352,-1.867294 -0.06024,-0.03012 -0.09035,-0.06023 -0.09035,-0.06023 0,0 0,0.09035 0,0.240942 v 0.271058 c 0,0 0.150588,0.09035 0.150588,0.09035 1.325177,0.752942 2.861176,1.295059 4.547764,1.596235 1.204706,0.210824 2.43953,0.301177 3.734588,0.271059 z m -0.542118,-2.379293 c 0,0 0,0 0,0 0.150589,-0.03012 0.271059,-0.06024 0.39153,-0.150588 0.150588,-0.09035 0.210824,-0.240942 0.271059,-0.421647 v -0.06023 l 0.03012,-5.903059 v -5.903058 c 0,0 -0.210823,0 -0.210823,0 -0.240942,0 -0.873413,0 -1.114353,0 h -0.210824 v 5.903058 5.903059 c 0,0 0.03012,0.06023 0.03012,0.06023 0.03012,0.12047 0.06024,0.180705 0.120471,0.271059 0.06023,0.09035 0.180705,0.180705 0.301176,0.24094 0.09035,0.03012 0.210824,0.06024 0.301176,0.06024 0,0 0.06024,0 0.09035,0 z m -4.638117,-0.873412 c 0,0 0,0 0,0 0.301177,-0.09035 0.542118,-0.331294 0.572236,-0.662588 0,-0.03012 0,-1.927529 0,-5.692235 v -5.662117 c 0,0 -0.03012,0 -0.03012,0 -0.03012,0 -0.09035,-0.03012 -0.210824,-0.06023 -0.361412,-0.09035 -0.722824,-0.210824 -1.084235,-0.331294 -0.09035,-0.03012 -0.180706,-0.06023 -0.180706,-0.06023 0,0 0,1.174588 0,5.933175 v 5.933176 c 0,0 0.03012,0.06024 0.03012,0.06024 0.03012,0.06023 0.06023,0.180705 0.09035,0.240941 0.03012,0.06023 0.150588,0.150588 0.210824,0.180706 0.180705,0.12047 0.391529,0.180705 0.602352,0.12047 z m 9.396706,0 c 0,0 0,0 0,0 0.301176,-0.03012 0.542117,-0.240941 0.63247,-0.542117 l 0.03012,-0.09035 c 0,0 0,-5.903058 0,-5.903058 0,-3.252705 0,-5.933175 0,-5.933175 0,0 -0.09035,0.06023 -0.210824,0.09035 -0.361412,0.120471 -0.722824,0.210824 -1.084235,0.301177 l -0.210824,0.06023 v 5.692235 5.692234 c 0,0 0.03012,0.06024 0.03012,0.06024 0.03012,0.120471 0.09035,0.271059 0.180706,0.361411 0.180706,0.180707 0.391529,0.240942 0.632471,0.210824 z m 5.903058,-3.403294 c 0,0 0.06023,-0.03012 0.06023,-0.03012 0.09035,-0.03012 0.150589,-0.06023 0.210824,-0.12047 0.210823,-0.150589 0.361411,-0.331294 0.391529,-0.542118 0,-0.03012 0.240941,-2.319059 0.572235,-5.089882 0.421647,-3.583999 0.602353,-5.029646 0.602353,-5.119999 0.03012,-0.481882 -0.210824,-0.933647 -0.542118,-1.084236 -0.03012,-0.03012 -0.09035,-0.06023 -0.12047,-0.06023 l -0.06023,-0.03012 H 81.029937 79.07229 v 0.602353 0.572235 h 1.505882 1.505883 c 0,0 0.03012,0.03012 0.03012,0.03012 0.06024,0.03012 0.120471,0.06024 0.180706,0.09035 0.09035,0.06023 0.150589,0.210824 0.150589,0.331294 0,0.06023 -0.06024,0.873412 -0.481883,4.457412 -0.271058,2.409411 -0.512,4.397176 -0.512,4.427293 -0.03012,0.09035 -0.09035,0.180707 -0.150588,0.240942 -0.06024,0.06023 -0.09035,0.09035 -0.180706,0.12047 l -0.06024,0.03012 H 80.06617 79.072288 v 0.572236 0.602352 H 80.4577 Z m -1.325176,-2.16847 c 0,0 0,0 0,0 0,0 0.873411,-7.679999 0.873411,-7.710117 v -0.03012 H 80.246878 79.07229 v 3.855059 3.885176 c 0,0 0.722823,0 0.722823,0 0.512,0 0.752942,0 0.752942,0 z M 63.200291,68.977647 v 0 -4.517646 c 0,0 0.03012,0 0.03012,0 0,0 0.03012,-0.03012 0.03012,-0.03012 0,0 0.120471,0.03012 0.240942,0.06024 0.903529,0.210824 1.295058,0.361412 2.469646,0.933647 0.451765,0.210823 0.602353,0.271059 0.813177,0.361411 1.024,0.421647 1.746823,0.512001 2.620235,0.210824 0.150588,-0.06023 0.210823,-0.09035 0.542117,-0.210824 0.572236,-0.210823 0.873412,-0.301176 1.264941,-0.361411 0.150589,-0.03012 0.542118,-0.03012 0.692706,0 0.240942,0.03012 0.421647,0.06023 0.843294,0.180706 0.662588,0.150588 0.873412,0.210823 1.234824,0.150588 0.361412,-0.06023 0.692705,-0.150588 1.566117,-0.421647 0.632471,-0.210823 0.813177,-0.271059 1.204706,-0.361412 0.843294,-0.210823 1.204706,-0.361412 1.475765,-0.542117 0.240941,-0.150589 0.331294,-0.331294 0.421647,-0.632471 0.09035,-0.271059 0.12047,-0.542117 0.06023,-0.873412 -0.03012,-0.271059 -0.06023,-0.391529 -0.150588,-0.572235 -0.210824,-0.481882 -0.572236,-0.813176 -1.054118,-1.054117 -0.391529,-0.180706 -0.813176,-0.180706 -1.566117,0 -0.120471,0.03012 -0.240942,0.06023 -0.301177,0.06023 -1.20471,0.240943 -2.319063,0.180708 -3.373181,-0.240939 -0.180705,-0.06023 -0.331294,-0.150588 -0.512,-0.240941 -0.150588,-0.06024 -0.210823,-0.120471 -0.361411,-0.210824 -0.331295,-0.240941 -0.632471,-0.451764 -1.204706,-0.903529 -0.481882,-0.391529 -0.632471,-0.481882 -0.843294,-0.63247 -0.361412,-0.240942 -0.602353,-0.331295 -0.873412,-0.39153 -0.09035,-0.03012 -0.301176,-0.06024 -0.39153,-0.03012 -0.210823,0.03012 -0.451764,0.150588 -0.722823,0.361412 -0.12047,0.09035 -0.271058,0.210823 -0.542117,0.451764 -0.331295,0.301177 -0.421647,0.39153 -0.632471,0.512 -0.331294,0.210824 -0.692706,0.331294 -1.084235,0.39153 -0.210824,0.03012 -0.451765,0.06024 -0.933647,0.09035 -0.752941,0.03012 -1.054118,0.09035 -1.355294,0.240941 -0.632471,0.331294 -1.14447,1.054117 -1.295059,1.867294 -0.03012,0.12047 0,0.391529 0,0.512 0.03012,0.240941 0.09035,0.451765 0.240941,0.662588 0.120471,0.180706 0.150588,0.180706 0.271059,0.240941 0.120471,0.03012 0.180706,0.06024 0.240941,0.120471 0.09035,0.06023 0.150589,0.12047 0.210824,0.210823 0.12047,0.180706 0.180706,0.361412 0.210823,0.632471 0,0.09035 0,0.301176 0,0.843294 0,0.903529 -0.03012,1.14447 -0.09035,2.258823 -0.06023,0.993882 -0.03012,1.355294 -0.03012,1.716706 0,0.271058 0,0.331294 -0.03012,0.512 -0.06023,0.271059 -0.12047,0.451764 -0.361411,1.024 -0.120471,0.331294 -0.180706,0.512 -0.210824,0.692706 -0.03012,0.09035 -0.03012,0.12047 -0.03012,0.210823 0,0.180706 0,0.301177 0.03012,0.361412 0.06024,0.210824 0.271059,0.421647 0.512,0.602353 0.06023,0.03012 0.150588,0.09035 0.240941,0.12047 0.120471,0.06024 0.391529,0.150588 0.451765,0.150588 h 0.03012 z m 8.31247,1.325177 c 0,0 0,0 0,0 0.752941,-0.03012 1.415529,-0.09035 2.108235,-0.210824 1.475765,-0.210823 2.921412,-0.662588 4.096,-1.264941 l 0.150588,-0.09035 c 0,0 0,-1.415529 0,-1.415529 0,-0.783059 0,-1.445647 0,-1.445647 0,0 -0.06023,0.03012 -0.120471,0.06023 -0.180705,0.06024 -0.240941,0.09035 -0.63247,0.180706 -0.481882,0.120471 -0.542118,0.150589 -1.14447,0.331294 -0.722824,0.240941 -0.993883,0.301177 -1.355295,0.391529 -0.421647,0.09035 -0.692706,0.120471 -0.993882,0.120471 -0.331294,0 -0.542118,-0.03012 -1.114353,-0.180706 -0.542117,-0.150588 -0.722823,-0.180706 -0.963764,-0.180706 -0.120471,0 -0.150588,0.03012 -0.240941,0.03012 -0.240942,0.03012 -0.481883,0.12047 -1.054118,0.331294 -0.210824,0.09035 -0.481882,0.150588 -0.542117,0.180706 -0.301177,0.09035 -0.572236,0.180705 -0.933648,0.210823 -0.12047,0 -0.662588,0 -0.783058,0 -0.512,-0.06023 -0.963765,-0.180706 -1.505883,-0.391529 -0.271058,-0.120471 -0.481882,-0.210824 -0.963764,-0.451765 -0.512,-0.240941 -0.752941,-0.331294 -1.024,-0.451764 L 64.405,65.995996 v 1.385412 1.385412 c 0,0 0.150588,0.06023 0.150588,0.06023 1.716706,0.873411 3.824941,1.355294 5.993412,1.445647 0.421647,0 0.63247,0.03012 0.963764,0.03012 z"
   id="path7235-3" /><rect
   style="fill:#00004b;fill-opacity:1;stroke-width:0.499999;stroke-linecap:round;stroke-linejoin:round;paint-order:markers fill stroke"
   id="rect20997"
   width="35"
   height="35"
   x="10"
   y="54.999996" /><path
   style="fill:#9898ff;fill-opacity:1;stroke-width:0.5;stroke-linecap:round;stroke-linejoin:round;paint-order:markers fill stroke"
   d="m 25.699585,87.499999 c 0,0 0,0 0,0 -0.752941,-0.03012 -1.264941,-0.06024 -1.897412,-0.150589 -2.16847,-0.271059 -4.186353,-0.903529 -5.872941,-1.867294 -0.301176,-0.180705 -0.391529,-0.240941 -0.481882,-0.331294 -0.180706,-0.180706 -0.271059,-0.391529 -0.301176,-0.63247 0,-0.06023 0,-0.150589 0,-0.512 0,-0.421648 -0.03012,-0.451765 0,-0.512 0.06023,-0.210823 0.150588,-0.421647 0.301176,-0.572235 0.210824,-0.210824 0.421647,-0.301177 0.722824,-0.331294 h 0.03012 v -4.005648 -4.005646 c 0,0 -0.09035,0 -0.09035,0 -0.63247,-0.06023 -1.234823,-0.391529 -1.686587,-0.843294 -0.301177,-0.301176 -0.481883,-0.632471 -0.542118,-0.993882 -0.03012,-0.210824 -0.06023,-0.512 -0.03012,-0.692706 0.03012,-0.331294 0.120471,-0.572235 0.361412,-1.174588 0.150588,-0.361412 0.210823,-0.512 0.240941,-0.692706 v -0.09035 c 0,0 0,-0.39153 0,-0.39153 0,-1.295058 0.09035,-2.710588 0.180706,-3.493646 0.03012,-0.271059 0.03012,-0.39153 0.03012,-0.512 0,-0.301177 -0.06024,-0.512 -0.240941,-0.662588 -0.06024,-0.06024 -0.120471,-0.120471 -0.331295,-0.271059 -0.271058,-0.180706 -0.421647,-0.391529 -0.572235,-0.752941 -0.301176,-0.722823 -0.271058,-1.626353 0.09035,-2.499765 0.361412,-0.813176 0.963765,-1.475764 1.656471,-1.837176 0.481882,-0.240941 0.903529,-0.301176 1.927529,-0.361411 0.271059,0 0.391529,0 0.512,-0.03012 0.421647,-0.06024 0.692705,-0.150589 0.993882,-0.361412 0.09035,-0.06024 0.150589,-0.120471 0.391529,-0.331294 0.481883,-0.451765 0.783059,-0.662589 1.114353,-0.813177 0.331295,-0.180706 0.632471,-0.271059 0.963765,-0.271059 0.572235,-0.03012 1.114353,0.180706 1.776941,0.632471 0.240941,0.150588 0.451764,0.301176 0.963765,0.692706 0.542117,0.421647 0.813176,0.602353 1.114353,0.813176 0.12047,0.09035 0.180705,0.120471 0.301176,0.180706 0.512,0.240941 1.024,0.391529 1.596235,0.451765 0.150588,0.03012 0.512,0.03012 0.692706,0.03012 0.361411,-0.03012 0.602353,-0.09035 1.054117,-0.180706 0.542118,-0.120471 0.843294,-0.150589 1.234824,-0.150589 0.451764,0 0.813176,0.09035 1.204705,0.301177 0.331295,0.150588 0.602354,0.361412 0.843295,0.602353 0.451765,0.421647 0.783059,1.024 0.903529,1.626353 0.03012,0.09035 0.06023,0.421647 0.06023,0.512 0,0.120471 0,0.421647 0,0.542118 -0.06023,0.542117 -0.240941,1.023999 -0.511999,1.385411 -0.06024,0.09035 -0.210824,0.240941 -0.271059,0.301176 l -0.06024,0.06024 v 0.63247 0.662588 c 0,0 1.92753,0 1.92753,0 1.26494,0 1.987764,0 2.047999,0 0.421647,0.03012 0.843294,0.240941 1.114353,0.572236 0.391529,0.451764 0.572235,1.054117 0.512,1.686588 0,0.09035 -1.144471,9.96894 -1.174588,10.179764 -0.09035,0.722823 -0.63247,1.325176 -1.325176,1.505882 -0.210824,0.06023 -0.120471,0.06023 -1.686589,0.06023 h -1.415529 v 0.993882 0.993883 c 0,0 0.03012,0 0.03012,0 0.150588,0.03012 0.271059,0.03012 0.39153,0.09035 0.301176,0.150588 0.511999,0.39153 0.602352,0.692706 0.06024,0.150588 0.06024,0.180706 0.06024,0.602353 0,0.391529 0,0.512 -0.03012,0.632471 -0.06024,0.240941 -0.210824,0.481882 -0.421648,0.63247 -0.180705,0.150588 -0.903529,0.542118 -1.415528,0.783059 -1.566118,0.722824 -3.343059,1.204706 -5.210353,1.385411 -0.361412,0.03012 -0.722824,0.06024 -1.174588,0.09035 -0.150588,0 -1.054117,0 -1.204706,0 z m 1.054117,-1.204707 c 0,0 0,0 0,0 1.536,-0.06023 3.072,-0.301176 4.487529,-0.752941 0.933647,-0.301176 1.807059,-0.692705 2.590118,-1.14447 l 0.120471,-0.06023 c 0,0 0,-0.271059 0,-0.271059 0,-0.150588 0,-0.240941 0,-0.240941 0,0 -0.03012,0 -0.06024,0.03012 -0.301176,0.180706 -0.722824,0.391529 -1.114353,0.572235 -1.686588,0.752942 -3.614117,1.204706 -5.662117,1.325176 -0.572235,0.03012 -1.385412,0.03012 -1.957647,0 -2.499764,-0.150587 -4.879058,-0.783058 -6.746352,-1.867294 -0.06024,-0.03012 -0.09035,-0.06023 -0.09035,-0.06023 0,0 0,0.09035 0,0.240942 v 0.271058 c 0,0 0.150588,0.09035 0.150588,0.09035 1.325177,0.752942 2.861176,1.295059 4.547764,1.596235 1.204706,0.210824 2.43953,0.301177 3.734588,0.271059 z m -0.542118,-2.379293 c 0,0 0,0 0,0 0.150589,-0.03012 0.271059,-0.06024 0.39153,-0.150588 0.150588,-0.09035 0.210824,-0.240942 0.271059,-0.421647 v -0.06023 l 0.03012,-5.903059 v -5.903058 c 0,0 -0.210823,0 -0.210823,0 -0.240942,0 -0.873413,0 -1.114353,0 h -0.210824 v 5.903058 5.903059 c 0,0 0.03012,0.06023 0.03012,0.06023 0.03012,0.12047 0.06024,0.180705 0.120471,0.271059 0.06023,0.09035 0.180705,0.180705 0.301176,0.24094 0.09035,0.03012 0.210824,0.06024 0.301176,0.06024 0,0 0.06024,0 0.09035,0 z m -4.638117,-0.873412 c 0,0 0,0 0,0 0.301177,-0.09035 0.542118,-0.331294 0.572236,-0.662588 0,-0.03012 0,-1.927529 0,-5.692235 v -5.662117 c 0,0 -0.03012,0 -0.03012,0 -0.03012,0 -0.09035,-0.03012 -0.210824,-0.06023 -0.361412,-0.09035 -0.722824,-0.210824 -1.084235,-0.331294 -0.09035,-0.03012 -0.180706,-0.06023 -0.180706,-0.06023 0,0 0,1.174588 0,5.933175 v 5.933176 c 0,0 0.03012,0.06024 0.03012,0.06024 0.03012,0.06023 0.06023,0.180705 0.09035,0.240941 0.03012,0.06023 0.150588,0.150588 0.210824,0.180706 0.180705,0.12047 0.391529,0.180705 0.602352,0.12047 z m 9.396706,0 c 0,0 0,0 0,0 0.301176,-0.03012 0.542117,-0.240941 0.63247,-0.542117 l 0.03012,-0.09035 c 0,0 0,-5.903058 0,-5.903058 0,-3.252705 0,-5.933175 0,-5.933175 0,0 -0.09035,0.06023 -0.210824,0.09035 -0.361412,0.120471 -0.722824,0.210824 -1.084235,0.301177 l -0.210824,0.06023 v 5.692235 5.692234 c 0,0 0.03012,0.06024 0.03012,0.06024 0.03012,0.120471 0.09035,0.271059 0.180706,0.361411 0.180706,0.180707 0.391529,0.240942 0.632471,0.210824 z m 5.903058,-3.403294 c 0,0 0.06023,-0.03012 0.06023,-0.03012 0.09035,-0.03012 0.150589,-0.06023 0.210824,-0.12047 0.210823,-0.150589 0.361411,-0.331294 0.391529,-0.542118 0,-0.03012 0.240941,-2.319059 0.572235,-5.089882 0.421647,-3.583999 0.602353,-5.029646 0.602353,-5.119999 0.03012,-0.481882 -0.210824,-0.933647 -0.542118,-1.084236 -0.03012,-0.03012 -0.09035,-0.06023 -0.12047,-0.06023 l -0.06023,-0.03012 H 36.029937 34.07229 v 0.602353 0.572235 h 1.505882 1.505883 c 0,0 0.03012,0.03012 0.03012,0.03012 0.06024,0.03012 0.120471,0.06024 0.180706,0.09035 0.09035,0.06023 0.150589,0.210824 0.150589,0.331294 0,0.06023 -0.06024,0.873412 -0.481883,4.457412 -0.271058,2.409411 -0.512,4.397176 -0.512,4.427293 -0.03012,0.09035 -0.09035,0.180707 -0.150588,0.240942 -0.06024,0.06023 -0.09035,0.09035 -0.180706,0.12047 l -0.06024,0.03012 H 35.06617 34.072288 v 0.572236 0.602352 H 35.4577 Z m -1.325176,-2.16847 c 0,0 0,0 0,0 0,0 0.873411,-7.679999 0.873411,-7.710117 v -0.03012 H 35.246878 34.07229 v 3.855059 3.885176 c 0,0 0.722823,0 0.722823,0 0.512,0 0.752942,0 0.752942,0 z M 18.200291,68.977647 v 0 -4.517646 c 0,0 0.03012,0 0.03012,0 0,0 0.03012,-0.03012 0.03012,-0.03012 0,0 0.120471,0.03012 0.240942,0.06024 0.903529,0.210824 1.295058,0.361412 2.469646,0.933647 0.451765,0.210823 0.602353,0.271059 0.813177,0.361411 1.024,0.421647 1.746823,0.512001 2.620235,0.210824 0.150588,-0.06023 0.210823,-0.09035 0.542117,-0.210824 0.572236,-0.210823 0.873412,-0.301176 1.264941,-0.361411 0.150589,-0.03012 0.542118,-0.03012 0.692706,0 0.240942,0.03012 0.421647,0.06023 0.843294,0.180706 0.662588,0.150588 0.873412,0.210823 1.234824,0.150588 0.361412,-0.06023 0.692705,-0.150588 1.566117,-0.421647 0.632471,-0.210823 0.813177,-0.271059 1.204706,-0.361412 0.843294,-0.210823 1.204706,-0.361412 1.475765,-0.542117 0.240941,-0.150589 0.331294,-0.331294 0.421647,-0.632471 0.09035,-0.271059 0.12047,-0.542117 0.06023,-0.873412 -0.03012,-0.271059 -0.06023,-0.391529 -0.150588,-0.572235 -0.210824,-0.481882 -0.572236,-0.813176 -1.054118,-1.054117 -0.391529,-0.180706 -0.813176,-0.180706 -1.566117,0 -0.120471,0.03012 -0.240942,0.06023 -0.301177,0.06023 -1.20471,0.240943 -2.319063,0.180708 -3.373181,-0.240939 -0.180705,-0.06023 -0.331294,-0.150588 -0.512,-0.240941 -0.150588,-0.06024 -0.210823,-0.120471 -0.361411,-0.210824 -0.331295,-0.240941 -0.632471,-0.451764 -1.204706,-0.903529 -0.481882,-0.391529 -0.632471,-0.481882 -0.843294,-0.63247 -0.361412,-0.240942 -0.602353,-0.331295 -0.873412,-0.39153 -0.09035,-0.03012 -0.301176,-0.06024 -0.39153,-0.03012 -0.210823,0.03012 -0.451764,0.150588 -0.722823,0.361412 -0.12047,0.09035 -0.271058,0.210823 -0.542117,0.451764 -0.331295,0.301177 -0.421647,0.39153 -0.632471,0.512 -0.331294,0.210824 -0.692706,0.331294 -1.084235,0.39153 -0.210824,0.03012 -0.451765,0.06024 -0.933647,0.09035 -0.752941,0.03012 -1.054118,0.09035 -1.355294,0.240941 -0.632471,0.331294 -1.14447,1.054117 -1.295059,1.867294 -0.03012,0.12047 0,0.391529 0,0.512 0.03012,0.240941 0.09035,0.451765 0.240941,0.662588 0.120471,0.180706 0.150588,0.180706 0.271059,0.240941 0.120471,0.03012 0.180706,0.06024 0.240941,0.120471 0.09035,0.06023 0.150589,0.12047 0.210824,0.210823 0.12047,0.180706 0.180706,0.361412 0.210823,0.632471 0,0.09035 0,0.301176 0,0.843294 0,0.903529 -0.03012,1.14447 -0.09035,2.258823 -0.06023,0.993882 -0.03012,1.355294 -0.03012,1.716706 0,0.271058 0,0.331294 -0.03012,0.512 -0.06023,0.271059 -0.12047,0.451764 -0.361411,1.024 -0.120471,0.331294 -0.180706,0.512 -0.210824,0.692706 -0.03012,0.09035 -0.03012,0.12047 -0.03012,0.210823 0,0.180706 0,0.301177 0.03012,0.361412 0.06024,0.210824 0.271059,0.421647 0.512,0.602353 0.06023,0.03012 0.150588,0.09035 0.240941,0.12047 0.120471,0.06024 0.391529,0.150588 0.451765,0.150588 h 0.03012 z m 8.31247,1.325177 c 0,0 0,0 0,0 0.752941,-0.03012 1.415529,-0.09035 2.108235,-0.210824 1.475765,-0.210823 2.921412,-0.662588 4.096,-1.264941 l 0.150588,-0.09035 c 0,0 0,-1.415529 0,-1.415529 0,-0.783059 0,-1.445647 0,-1.445647 0,0 -0.06023,0.03012 -0.120471,0.06023 -0.180705,0.06024 -0.240941,0.09035 -0.63247,0.180706 -0.481882,0.120471 -0.542118,0.150589 -1.14447,0.331294 -0.722824,0.240941 -0.993883,0.301177 -1.355295,0.391529 -0.421647,0.09035 -0.692706,0.120471 -0.993882,0.120471 -0.331294,0 -0.542118,-0.03012 -1.114353,-0.180706 -0.542117,-0.150588 -0.722823,-0.180706 -0.963764,-0.180706 -0.120471,0 -0.150588,0.03012 -0.240941,0.03012 -0.240942,0.03012 -0.481883,0.12047 -1.054118,0.331294 -0.210824,0.09035 -0.481882,0.150588 -0.542117,0.180706 -0.301177,0.09035 -0.572236,0.180705 -0.933648,0.210823 -0.12047,0 -0.662588,0 -0.783058,0 -0.512,-0.06023 -0.963765,-0.180706 -1.505883,-0.391529 -0.271058,-0.120471 -0.481882,-0.210824 -0.963764,-0.451765 -0.512,-0.240941 -0.752941,-0.331294 -1.024,-0.451764 L 19.405,65.995996 v 1.385412 1.385412 c 0,0 0.150588,0.06023 0.150588,0.06023 1.716706,0.873411 3.824941,1.355294 5.993412,1.445647 0.421647,0 0.63247,0.03012 0.963764,0.03012 z"
   id="path7235-6" /><path
   style="fill:#9898ff;fill-opacity:1;stroke-width:0.5;stroke-linecap:round;stroke-linejoin:round;paint-order:markers fill stroke"
   d="m 25.699585,42.499999 c 0,0 0,0 0,0 -0.752941,-0.03012 -1.264941,-0.06024 -1.897412,-0.150589 -2.16847,-0.271059 -4.186353,-0.903529 -5.872941,-1.867294 -0.301176,-0.180705 -0.391529,-0.240941 -0.481882,-0.331294 -0.180706,-0.180706 -0.271059,-0.391529 -0.301176,-0.63247 0,-0.06023 0,-0.150589 0,-0.512 0,-0.421648 -0.03012,-0.451765 0,-0.512 0.06023,-0.210823 0.150588,-0.421647 0.301176,-0.572235 0.210824,-0.210824 0.421647,-0.301177 0.722824,-0.331294 h 0.03012 v -4.005648 -4.005646 c 0,0 -0.09035,0 -0.09035,0 -0.63247,-0.06023 -1.234823,-0.391529 -1.686587,-0.843294 -0.301177,-0.301176 -0.481883,-0.632471 -0.542118,-0.993882 -0.03012,-0.210824 -0.06023,-0.512 -0.03012,-0.692706 0.03012,-0.331294 0.120471,-0.572235 0.361412,-1.174588 0.150588,-0.361412 0.210823,-0.512 0.240941,-0.692706 v -0.09035 c 0,0 0,-0.39153 0,-0.39153 0,-1.295058 0.09035,-2.710588 0.180706,-3.493646 0.03012,-0.271059 0.03012,-0.39153 0.03012,-0.512 0,-0.301177 -0.06024,-0.512 -0.240941,-0.662588 -0.06024,-0.06024 -0.120471,-0.120471 -0.331295,-0.271059 -0.271058,-0.180706 -0.421647,-0.391529 -0.572235,-0.752941 -0.301176,-0.722823 -0.271058,-1.626353 0.09035,-2.499765 0.361412,-0.813176 0.963765,-1.475764 1.656471,-1.837176 0.481882,-0.240941 0.903529,-0.301176 1.927529,-0.361411 0.271059,0 0.391529,0 0.512,-0.03012 0.421647,-0.06024 0.692705,-0.150589 0.993882,-0.361412 0.09035,-0.06024 0.150589,-0.120471 0.391529,-0.331294 0.481883,-0.451765 0.783059,-0.662589 1.114353,-0.813177 0.331295,-0.180706 0.632471,-0.271059 0.963765,-0.271059 0.572235,-0.03012 1.114353,0.180706 1.776941,0.632471 0.240941,0.150588 0.451764,0.301176 0.963765,0.692706 0.542117,0.421647 0.813176,0.602353 1.114353,0.813176 0.12047,0.09035 0.180705,0.120471 0.301176,0.180706 0.512,0.240941 1.024,0.391529 1.596235,0.451765 0.150588,0.03012 0.512,0.03012 0.692706,0.03012 0.361411,-0.03012 0.602353,-0.09035 1.054117,-0.180706 0.542118,-0.120471 0.843294,-0.150589 1.234824,-0.150589 0.451764,0 0.813176,0.09035 1.204705,0.301177 0.331295,0.150588 0.602354,0.361412 0.843295,0.602353 0.451765,0.421647 0.783059,1.024 0.903529,1.626353 0.03012,0.09035 0.06023,0.421647 0.06023,0.512 0,0.120471 0,0.421647 0,0.542118 -0.06023,0.542117 -0.240941,1.023999 -0.511999,1.385411 -0.06024,0.09035 -0.210824,0.240941 -0.271059,0.301176 l -0.06024,0.06024 v 0.63247 0.662588 c 0,0 1.92753,0 1.92753,0 1.26494,0 1.987764,0 2.047999,0 0.421647,0.03012 0.843294,0.240941 1.114353,0.572236 0.391529,0.451764 0.572235,1.054117 0.512,1.686588 0,0.09035 -1.144471,9.96894 -1.174588,10.179764 -0.09035,0.722823 -0.63247,1.325176 -1.325176,1.505882 -0.210824,0.06023 -0.120471,0.06023 -1.686589,0.06023 h -1.415529 v 0.993882 0.993883 c 0,0 0.03012,0 0.03012,0 0.150588,0.03012 0.271059,0.03012 0.39153,0.09035 0.301176,0.150588 0.511999,0.39153 0.602352,0.692706 0.06024,0.150588 0.06024,0.180706 0.06024,0.602353 0,0.391529 0,0.512 -0.03012,0.632471 -0.06024,0.240941 -0.210824,0.481882 -0.421648,0.63247 -0.180705,0.150588 -0.903529,0.542118 -1.415528,0.783059 -1.566118,0.722824 -3.343059,1.204706 -5.210353,1.385411 -0.361412,0.03012 -0.722824,0.06024 -1.174588,0.09035 -0.150588,0 -1.054117,0 -1.204706,0 z m 1.054117,-1.204707 c 0,0 0,0 0,0 1.536,-0.06023 3.072,-0.301176 4.487529,-0.752941 0.933647,-0.301176 1.807059,-0.692705 2.590118,-1.14447 l 0.120471,-0.06023 c 0,0 0,-0.271059 0,-0.271059 0,-0.150588 0,-0.240941 0,-0.240941 0,0 -0.03012,0 -0.06024,0.03012 -0.301176,0.180706 -0.722824,0.391529 -1.114353,0.572235 -1.686588,0.752942 -3.614117,1.204706 -5.662117,1.325176 -0.572235,0.03012 -1.385412,0.03012 -1.957647,0 -2.499764,-0.150587 -4.879058,-0.783058 -6.746352,-1.867294 -0.06024,-0.03012 -0.09035,-0.06023 -0.09035,-0.06023 0,0 0,0.09035 0,0.240942 v 0.271058 c 0,0 0.150588,0.09035 0.150588,0.09035 1.325177,0.752942 2.861176,1.295059 4.547764,1.596235 1.204706,0.210824 2.43953,0.301177 3.734588,0.271059 z m -0.542118,-2.379293 c 0,0 0,0 0,0 0.150589,-0.03012 0.271059,-0.06024 0.39153,-0.150588 0.150588,-0.09035 0.210824,-0.240942 0.271059,-0.421647 v -0.06023 l 0.03012,-5.903059 v -5.903058 c 0,0 -0.210823,0 -0.210823,0 -0.240942,0 -0.873413,0 -1.114353,0 h -0.210824 v 5.903058 5.903059 c 0,0 0.03012,0.06023 0.03012,0.06023 0.03012,0.12047 0.06024,0.180705 0.120471,0.271059 0.06023,0.09035 0.180705,0.180705 0.301176,0.24094 0.09035,0.03012 0.210824,0.06024 0.301176,0.06024 0,0 0.06024,0 0.09035,0 z m -4.638117,-0.873412 c 0,0 0,0 0,0 0.301177,-0.09035 0.542118,-0.331294 0.572236,-0.662588 0,-0.03012 0,-1.927529 0,-5.692235 v -5.662117 c 0,0 -0.03012,0 -0.03012,0 -0.03012,0 -0.09035,-0.03012 -0.210824,-0.06023 -0.361412,-0.09035 -0.722824,-0.210824 -1.084235,-0.331294 -0.09035,-0.03012 -0.180706,-0.06023 -0.180706,-0.06023 0,0 0,1.174588 0,5.933175 v 5.933176 c 0,0 0.03012,0.06024 0.03012,0.06024 0.03012,0.06023 0.06023,0.180705 0.09035,0.240941 0.03012,0.06023 0.150588,0.150588 0.210824,0.180706 0.180705,0.12047 0.391529,0.180705 0.602352,0.12047 z m 9.396706,0 c 0,0 0,0 0,0 0.301176,-0.03012 0.542117,-0.240941 0.63247,-0.542117 l 0.03012,-0.09035 c 0,0 0,-5.903058 0,-5.903058 0,-3.252705 0,-5.933175 0,-5.933175 0,0 -0.09035,0.06023 -0.210824,0.09035 -0.361412,0.120471 -0.722824,0.210824 -1.084235,0.301177 l -0.210824,0.06023 v 5.692235 5.692234 c 0,0 0.03012,0.06024 0.03012,0.06024 0.03012,0.120471 0.09035,0.271059 0.180706,0.361411 0.180706,0.180707 0.391529,0.240942 0.632471,0.210824 z m 5.903058,-3.403294 c 0,0 0.06023,-0.03012 0.06023,-0.03012 0.09035,-0.03012 0.150589,-0.06023 0.210824,-0.12047 0.210823,-0.150589 0.361411,-0.331294 0.391529,-0.542118 0,-0.03012 0.240941,-2.319059 0.572235,-5.089882 0.421647,-3.583999 0.602353,-5.029646 0.602353,-5.119999 0.03012,-0.481882 -0.210824,-0.933647 -0.542118,-1.084236 -0.03012,-0.03012 -0.09035,-0.06023 -0.12047,-0.06023 l -0.06023,-0.03012 H 36.029937 34.07229 v 0.602353 0.572235 h 1.505882 1.505883 c 0,0 0.03012,0.03012 0.03012,0.03012 0.06024,0.03012 0.120471,0.06024 0.180706,0.09035 0.09035,0.06023 0.150589,0.210824 0.150589,0.331294 0,0.06023 -0.06024,0.873412 -0.481883,4.457412 -0.271058,2.409411 -0.512,4.397176 -0.512,4.427293 -0.03012,0.09035 -0.09035,0.180707 -0.150588,0.240942 -0.06024,0.06023 -0.09035,0.09035 -0.180706,0.12047 l -0.06024,0.03012 H 35.06617 34.072288 v 0.572236 0.602352 H 35.4577 Z m -1.325176,-2.16847 c 0,0 0,0 0,0 0,0 0.873411,-7.679999 0.873411,-7.710117 v -0.03012 H 35.246878 34.07229 v 3.855059 3.885176 c 0,0 0.722823,0 0.722823,0 0.512,0 0.752942,0 0.752942,0 z M 18.200291,23.977647 v 0 -4.517646 c 0,0 0.03012,0 0.03012,0 0,0 0.03012,-0.03012 0.03012,-0.03012 0,0 0.120471,0.03012 0.240942,0.06024 0.903529,0.210824 1.295058,0.361412 2.469646,0.933647 0.451765,0.210823 0.602353,0.271059 0.813177,0.361411 1.024,0.421647 1.746823,0.512001 2.620235,0.210824 0.150588,-0.06023 0.210823,-0.09035 0.542117,-0.210824 0.572236,-0.210823 0.873412,-0.301176 1.264941,-0.361411 0.150589,-0.03012 0.542118,-0.03012 0.692706,0 0.240942,0.03012 0.421647,0.06023 0.843294,0.180706 0.662588,0.150588 0.873412,0.210823 1.234824,0.150588 0.361412,-0.06023 0.692705,-0.150588 1.566117,-0.421647 0.632471,-0.210823 0.813177,-0.271059 1.204706,-0.361412 0.843294,-0.210823 1.204706,-0.361412 1.475765,-0.542117 0.240941,-0.150589 0.331294,-0.331294 0.421647,-0.632471 0.09035,-0.271059 0.12047,-0.542117 0.06023,-0.873412 -0.03012,-0.271059 -0.06023,-0.391529 -0.150588,-0.572235 -0.210824,-0.481882 -0.572236,-0.813176 -1.054118,-1.054117 -0.391529,-0.180706 -0.813176,-0.180706 -1.566117,0 -0.120471,0.03012 -0.240942,0.06023 -0.301177,0.06023 -1.20471,0.240943 -2.319063,0.180708 -3.373181,-0.240939 -0.180705,-0.06023 -0.331294,-0.150588 -0.512,-0.240941 -0.150588,-0.06024 -0.210823,-0.120471 -0.361411,-0.210824 -0.331295,-0.240941 -0.632471,-0.451764 -1.204706,-0.903529 -0.481882,-0.391529 -0.632471,-0.481882 -0.843294,-0.63247 -0.361412,-0.240942 -0.602353,-0.331295 -0.873412,-0.39153 -0.09035,-0.03012 -0.301176,-0.06024 -0.39153,-0.03012 -0.210823,0.03012 -0.451764,0.150588 -0.722823,0.361412 -0.12047,0.09035 -0.271058,0.210823 -0.542117,0.451764 -0.331295,0.301177 -0.421647,0.39153 -0.632471,0.512 -0.331294,0.210824 -0.692706,0.331294 -1.084235,0.39153 -0.210824,0.03012 -0.451765,0.06024 -0.933647,0.09035 -0.752941,0.03012 -1.054118,0.09035 -1.355294,0.240941 -0.632471,0.331294 -1.14447,1.054117 -1.295059,1.867294 -0.03012,0.12047 0,0.391529 0,0.512 0.03012,0.240941 0.09035,0.451765 0.240941,0.662588 0.120471,0.180706 0.150588,0.180706 0.271059,0.240941 0.120471,0.03012 0.180706,0.06024 0.240941,0.120471 0.09035,0.06023 0.150589,0.12047 0.210824,0.210823 0.12047,0.180706 0.180706,0.361412 0.210823,0.632471 0,0.09035 0,0.301176 0,0.843294 0,0.903529 -0.03012,1.14447 -0.09035,2.258823 -0.06023,0.993882 -0.03012,1.355294 -0.03012,1.716706 0,0.271058 0,0.331294 -0.03012,0.512 -0.06023,0.271059 -0.12047,0.451764 -0.361411,1.024 -0.120471,0.331294 -0.180706,0.512 -0.210824,0.692706 -0.03012,0.09035 -0.03012,0.12047 -0.03012,0.210823 0,0.180706 0,0.301177 0.03012,0.361412 0.06024,0.210824 0.271059,0.421647 0.512,0.602353 0.06023,0.03012 0.150588,0.09035 0.240941,0.12047 0.120471,0.06024 0.391529,0.150588 0.451765,0.150588 h 0.03012 z m 8.31247,1.325177 c 0,0 0,0 0,0 0.752941,-0.03012 1.415529,-0.09035 2.108235,-0.210824 1.475765,-0.210823 2.921412,-0.662588 4.096,-1.264941 l 0.150588,-0.09035 c 0,0 0,-1.415529 0,-1.415529 0,-0.783059 0,-1.445647 0,-1.445647 0,0 -0.06023,0.03012 -0.120471,0.06023 -0.180705,0.06024 -0.240941,0.09035 -0.63247,0.180706 -0.481882,0.120471 -0.542118,0.150589 -1.14447,0.331294 -0.722824,0.240941 -0.993883,0.301177 -1.355295,0.391529 -0.421647,0.09035 -0.692706,0.120471 -0.993882,0.120471 -0.331294,0 -0.542118,-0.03012 -1.114353,-0.180706 -0.542117,-0.150588 -0.722823,-0.180706 -0.963764,-0.180706 -0.120471,0 -0.150588,0.03012 -0.240941,0.03012 -0.240942,0.03012 -0.481883,0.12047 -1.054118,0.331294 -0.210824,0.09035 -0.481882,0.150588 -0.542117,0.180706 -0.301177,0.09035 -0.572236,0.180705 -0.933648,0.210823 -0.12047,0 -0.662588,0 -0.783058,0 -0.512,-0.06023 -0.963765,-0.180706 -1.505883,-0.391529 -0.271058,-0.120471 -0.481882,-0.210824 -0.963764,-0.451765 -0.512,-0.240941 -0.752941,-0.331294 -1.024,-0.451764 L 19.405,20.995996 v 1.385412 1.385412 c 0,0 0.150588,0.06023 0.150588,0.06023 1.716706,0.873411 3.824941,1.355294 5.993412,1.445647 0.421647,0 0.63247,0.03012 0.963764,0.03012 z"
   id="path7235" /></svg>
