<?xml version="1.0" encoding="UTF-8" standalone="no"?>
<!-- Created with Inkscape (http://www.inkscape.org/) -->

<svg
   width="100mm"
   height="100mm"
   version="1.1"
   viewBox="0 0 100 100"
   xml:space="preserve"
   id="svg188"
   sodipodi:docname="stuff_feature_Objet_Group.svg"
   inkscape:version="1.2 (dc2aedaf03, 2022-05-15)"
   xmlns:inkscape="http://www.inkscape.org/namespaces/inkscape"
   xmlns:sodipodi="http://sodipodi.sourceforge.net/DTD/sodipodi-0.dtd"
   xmlns="http://www.w3.org/2000/svg"
   xmlns:svg="http://www.w3.org/2000/svg"><path
   id="rect14525"
   style="fill:#00004b;stroke-width:0.499999;stroke-linecap:round;stroke-linejoin:round;paint-order:markers fill stroke;fill-opacity:1"
   d="M 0 0 L 0 100.0001 L 100.0001 100.0001 L 100.0001 0 L 0 0 z M 5.0002116 5.0002116 L 94.999886 5.0002116 L 94.999886 94.999886 L 5.0002116 94.999886 L 5.0002116 5.0002116 z " /><defs
   id="defs192" /><sodipodi:namedview
   id="namedview190"
   pagecolor="#ffffff"
   bordercolor="#000000"
   borderopacity="0.25"
   inkscape:showpageshadow="2"
   inkscape:pageopacity="0.0"
   inkscape:pagecheckerboard="0"
   inkscape:deskcolor="#d1d1d1"
   inkscape:document-units="mm"
   showgrid="true"
   inkscape:zoom="1.1150485"
   inkscape:cx="-130.03919"
   inkscape:cy="295.95125"
   inkscape:window-width="3440"
   inkscape:window-height="1369"
   inkscape:window-x="1352"
   inkscape:window-y="-8"
   inkscape:window-maximized="1"
   inkscape:current-layer="svg188"><inkscape:grid
     type="xygrid"
     id="grid194"
     units="mm"
     spacingx="0.99999999"
     spacingy="0.99999999" /></sodipodi:namedview>

<rect
   style="fill:#00004b;stroke-width:0.499999;stroke-linecap:round;stroke-linejoin:round;paint-order:markers fill stroke;fill-opacity:1"
   id="rect14530"
   width="35"
   height="35"
   x="10"
   y="10" /><rect
   style="fill:#00004b;stroke-width:0.499999;stroke-linecap:round;stroke-linejoin:round;paint-order:markers fill stroke;fill-opacity:1"
   id="rect14532"
   width="35"
   height="35"
   x="54.999996"
   y="10" /><path
   style="fill:#9898ff;fill-opacity:1;stroke-width:0.5;stroke-linecap:round;stroke-linejoin:round;paint-order:markers fill stroke"
   d="m 72.499999,20 c 3,0 3,-4.5 0,-7.5 -3,3 -3,7.5 0,7.5 z m -4.5,1.5 v 0 15 h 9 c 0,0 0,-12 0,-12 0,-1.5 -9,-4.5 -9,-3 z m 19.5,16.5 c 0,0 -30,0 -30,0 0,3 3,4.5 4.5,4.5 0,0 21,0 21,0 1.5,0 4.5,-1.5 4.5,-4.5 z"
   id="path7235-6" /><rect
   style="fill:#00004b;stroke-width:0.499999;stroke-linecap:round;stroke-linejoin:round;paint-order:markers fill stroke;fill-opacity:1"
   id="rect14534"
   width="35"
   height="35"
   x="54.999996"
   y="54.999996" /><path
   style="fill:#9898ff;fill-opacity:1;stroke-width:0.5;stroke-linecap:round;stroke-linejoin:round;paint-order:markers fill stroke"
   d="m 72.499999,64.999999 c 3,0 3,-4.5 0,-7.5 -3,3 -3,7.5 0,7.5 z m -4.5,1.5 v 0 15 h 9 c 0,0 0,-12 0,-12 0,-1.5 -9,-4.5 -9,-3 z m 19.5,16.5 c 0,0 -30,0 -30,0 0,3 3,4.5 4.5,4.5 0,0 21,0 21,0 1.5,0 4.5,-1.5 4.5,-4.5 z"
   id="path7235-5" /><rect
   style="fill:#00004b;stroke-width:0.499999;stroke-linecap:round;stroke-linejoin:round;paint-order:markers fill stroke;fill-opacity:1"
   id="rect14536"
   width="35"
   height="35"
   x="10"
   y="54.999996" /><path
   style="fill:#9898ff;fill-opacity:1;stroke-width:0.5;stroke-linecap:round;stroke-linejoin:round;paint-order:markers fill stroke"
   d="m 27.5,64.999999 c 3,0 3,-4.5 0,-7.5 -3,3 -3,7.5 0,7.5 z m -4.5,1.5 v 0 15 h 9 c 0,0 0,-12 0,-12 0,-1.5 -9,-4.5 -9,-3 z m 19.5,16.5 c 0,0 -30,0 -30,0 0,3 3,4.5 4.5,4.5 0,0 21,0 21,0 1.5,0 4.5,-1.5 4.5,-4.5 z"
   id="path7235-9" /><path
   style="fill:#9898ff;fill-opacity:1;stroke-width:0.5;stroke-linecap:round;stroke-linejoin:round;paint-order:markers fill stroke"
   d="m 27.5,20 c 3,0 3,-4.5 0,-7.5 -3,3 -3,7.5 0,7.5 z M 23,21.5 v 0 15 h 9 c 0,0 0,-12 0,-12 0,-1.5 -9,-4.5 -9,-3 z M 42.5,38 c 0,0 -30,0 -30,0 0,3 3,4.5 4.5,4.5 0,0 21,0 21,0 1.5,0 4.5,-1.5 4.5,-4.5 z"
   id="path7235" /></svg>
